<svg version="1.1" xmlns="http://www.w3.org/2000/svg" viewBox="0 0 2050.063517398181 1062.859083701401" width="4100.127034796362" height="2125.718167402802">
  <!-- svg-source:excalidraw -->
  
  <defs>
    <style class="style-fonts">
      @font-face {
        font-family: "Virgil";
        src: url("https://excalidraw.com/Virgil.woff2");
      }
      @font-face {
        font-family: "Cascadia";
        src: url("https://excalidraw.com/Cascadia.woff2");
      }
      @font-face {
        font-family: "Assistant";
        src: url("https://excalidraw.com/Assistant-Regular.woff2");
      }
    </style>
    
  </defs>
  <rect x="0" y="0" width="2050.063517398181" height="1062.859083701401" fill="#ffffff"></rect><g stroke-linecap="round" transform="translate(777.5859803250079 444.2111383531124) rotate(0 106.201171875 98.005859375)"><path d="M32 0 C64.33 -0.23, 97.43 -0.37, 180.4 0 M32 0 C73.94 -0.34, 115.1 0.25, 180.4 0 M180.4 0 C202.2 0.44, 211.68 12.6, 212.4 32 M180.4 0 C200.68 2.11, 212.57 9.41, 212.4 32 M212.4 32 C214.42 84.97, 211.52 138.74, 212.4 164.01 M212.4 32 C212.63 69.59, 212.94 107.4, 212.4 164.01 M212.4 164.01 C212.65 185.79, 201.83 194.12, 180.4 196.01 M212.4 164.01 C212.33 185.81, 203.29 195.45, 180.4 196.01 M180.4 196.01 C141.31 197.99, 104.78 197.3, 32 196.01 M180.4 196.01 C122.56 197.39, 65.09 195.9, 32 196.01 M32 196.01 C12.04 194.49, -0.33 184.28, 0 164.01 M32 196.01 C9.31 197.5, -1.85 187.04, 0 164.01 M0 164.01 C-0.19 127.41, -0.56 92.64, 0 32 M0 164.01 C0.18 129.66, 0.39 94.89, 0 32 M0 32 C-1.21 11.47, 11.83 1.44, 32 0 M0 32 C0.73 10.38, 12.39 -0.37, 32 0" stroke="#1e1e1e" stroke-width="2" fill="none"></path></g><g mask="url(#mask-Il5WbdOYx0zfqGc9kMs-D)" stroke-linecap="round"><g transform="translate(880.2483816846701 300.8413907520264) rotate(0 -0.7126899045788377 71.071592550543)"><path d="M-0.36 -0.9 C-0.61 22.77, -0.33 117.56, -0.56 141.24 M1.65 1.25 C1.23 25.11, -0.33 118.85, -1.05 142.31" stroke="#1e1e1e" stroke-width="2" fill="none"></path></g><g transform="translate(880.2483816846701 300.8413907520264) rotate(0 -0.7126899045788377 71.071592550543)"><path d="M-9.06 118.63 C-7.68 129.06, -4.65 136.05, -1.05 142.31 M-9.06 118.63 C-7.66 124.69, -5.46 129.91, -1.05 142.31" stroke="#1e1e1e" stroke-width="2" fill="none"></path></g><g transform="translate(880.2483816846701 300.8413907520264) rotate(0 -0.7126899045788377 71.071592550543)"><path d="M8.03 119.01 C2.95 129.25, -0.49 136.09, -1.05 142.31 M8.03 119.01 C5.66 124.93, 4.08 130.07, -1.05 142.31" stroke="#1e1e1e" stroke-width="2" fill="none"></path></g></g><mask id="mask-Il5WbdOYx0zfqGc9kMs-D"><rect x="0" y="0" fill="#fff" width="981.6737614938278" height="542.9845758531125"></rect><rect x="859.5356917800912" y="359.4129833025694" fill="#000" width="40" height="25" opacity="1"></rect></mask><g transform="translate(859.5356917800914 359.4129833025694) rotate(0 21.011744423340986 12.133406461672891)"><text x="20" y="17.52" font-family="Virgil, Segoe UI Emoji" font-size="20px" fill="#1e1e1e" text-anchor="middle" style="white-space: pre;" direction="ltr" dominant-baseline="alphabetic">切片</text></g><g stroke-linecap="round" transform="translate(801.4297303250079 462.8869196031124) rotate(0 21.3984375 19.693359375)"><path d="M9.85 0 C17.79 -0.61, 24.7 -1.58, 32.95 0 M9.85 0 C15.85 0.57, 22.98 0.41, 32.95 0 M32.95 0 C39.91 -1.66, 40.91 1.35, 42.8 9.85 M32.95 0 C39.29 -0.59, 41.11 2.95, 42.8 9.85 M42.8 9.85 C41.31 15.09, 42.06 20.07, 42.8 29.54 M42.8 9.85 C42.27 17.93, 43.39 25.13, 42.8 29.54 M42.8 29.54 C43.38 36.47, 40.21 37.87, 32.95 39.39 M42.8 29.54 C42.73 34.94, 38.54 37.09, 32.95 39.39 M32.95 39.39 C27.82 40.7, 22.2 39.12, 9.85 39.39 M32.95 39.39 C26.75 40.07, 19.62 38.71, 9.85 39.39 M9.85 39.39 C1.38 37.84, 0.04 37.96, 0 29.54 M9.85 39.39 C4.94 37.97, 1.43 34.94, 0 29.54 M0 29.54 C0.71 24.13, 0.31 22.22, 0 9.85 M0 29.54 C1.05 22.25, 0.54 14.76, 0 9.85 M0 9.85 C0.99 4.07, 1.62 0.77, 9.85 0 M0 9.85 C0.1 2.53, 2.8 0.8, 9.85 0" stroke="#1e1e1e" stroke-width="2" fill="none"></path></g><g stroke-linecap="round" transform="translate(865.0078553250079 459.0275446031124) rotate(0 21.3984375 19.693359375)"><path d="M9.85 0 C14.18 -1.67, 19.98 1.12, 32.95 0 M9.85 0 C18.3 0.44, 28.06 -1.01, 32.95 0 M32.95 0 C37.63 -1.93, 42.6 2.77, 42.8 9.85 M32.95 0 C37.83 -0.33, 42.17 3.41, 42.8 9.85 M42.8 9.85 C41.9 15.86, 44.23 24.04, 42.8 29.54 M42.8 9.85 C43.15 17.84, 42.96 25.39, 42.8 29.54 M42.8 29.54 C43.49 34.59, 39.45 38.38, 32.95 39.39 M42.8 29.54 C41.83 33.81, 37.47 39.33, 32.95 39.39 M32.95 39.39 C26.34 39.42, 21.91 37.8, 9.85 39.39 M32.95 39.39 C28.33 39.04, 20.92 38.8, 9.85 39.39 M9.85 39.39 C3.32 41.25, 1.44 34.87, 0 29.54 M9.85 39.39 C4.71 38.22, -1.9 34.59, 0 29.54 M0 29.54 C0.13 24.42, 1.79 15.46, 0 9.85 M0 29.54 C0.22 23.19, 0.31 15.79, 0 9.85 M0 9.85 C-1.66 4.05, 3.37 -0.65, 9.85 0 M0 9.85 C-0.48 4.08, 4.52 -0.65, 9.85 0" stroke="#1e1e1e" stroke-width="2" fill="none"></path></g><g stroke-linecap="round" transform="translate(929.2226990750079 459.3478571031124) rotate(0 21.3984375 19.693359375)"><path d="M9.85 0 C15.79 1.23, 23.67 -1.48, 32.95 0 M9.85 0 C18.78 -0.97, 26.37 -1.11, 32.95 0 M32.95 0 C39.32 -0.51, 41.33 2.99, 42.8 9.85 M32.95 0 C38.89 0.13, 43.53 1.53, 42.8 9.85 M42.8 9.85 C44.3 16.75, 44.49 20.12, 42.8 29.54 M42.8 9.85 C43.18 17.14, 43.24 23.32, 42.8 29.54 M42.8 29.54 C42.74 35.1, 38.67 37.39, 32.95 39.39 M42.8 29.54 C40.75 36.04, 38.2 39.09, 32.95 39.39 M32.95 39.39 C24.52 37.62, 14.54 41.23, 9.85 39.39 M32.95 39.39 C23.17 38.49, 15.3 40.19, 9.85 39.39 M9.85 39.39 C4.72 38.16, 1.24 35.09, 0 29.54 M9.85 39.39 C1.38 37.87, 0.52 36.78, 0 29.54 M0 29.54 C1.83 23.38, 1.14 21.8, 0 9.85 M0 29.54 C0.41 23.1, -0.9 16.26, 0 9.85 M0 9.85 C0.08 2.63, 2.86 0.7, 9.85 0 M0 9.85 C1.24 2.63, 1.62 -1.41, 9.85 0" stroke="#1e1e1e" stroke-width="2" fill="none"></path></g><g stroke-linecap="round" transform="translate(801.2812928250079 522.8048883531123) rotate(0 21.3984375 19.693359375)"><path d="M9.85 0 C16.53 -1.8, 21.19 -1.22, 32.95 0 M9.85 0 C17.26 -0.77, 26.47 -0.07, 32.95 0 M32.95 0 C38.05 -0.29, 42.25 3.39, 42.8 9.85 M32.95 0 C40.25 -1.75, 42.64 2.4, 42.8 9.85 M42.8 9.85 C44.73 13.96, 44.16 21.6, 42.8 29.54 M42.8 9.85 C43.2 15.63, 42.82 22.42, 42.8 29.54 M42.8 29.54 C41.95 34.11, 37.73 39.33, 32.95 39.39 M42.8 29.54 C41.48 35.81, 41.18 38.23, 32.95 39.39 M32.95 39.39 C24.97 41.04, 21.05 41.03, 9.85 39.39 M32.95 39.39 C27.28 40.14, 22.29 38.59, 9.85 39.39 M9.85 39.39 C4.52 38.37, -1.66 34.79, 0 29.54 M9.85 39.39 C3.8 40.07, -1.32 36.32, 0 29.54 M0 29.54 C0.98 24.21, 0.74 16.06, 0 9.85 M0 29.54 C-0.92 22.56, -0.06 14.51, 0 9.85 M0 9.85 C-0.42 3.98, 4.36 -0.57, 9.85 0 M0 9.85 C-1.66 1.88, 3.9 -1.41, 9.85 0" stroke="#1e1e1e" stroke-width="2" fill="none"></path></g><g stroke-linecap="round" transform="translate(864.8594178250079 518.9455133531123) rotate(0 21.3984375 19.693359375)"><path d="M9.85 0 C19.52 -0.91, 27.31 0.59, 32.95 0 M9.85 0 C14.77 -0.03, 19.15 0.08, 32.95 0 M32.95 0 C38.97 0.11, 43.43 1.76, 42.8 9.85 M32.95 0 C39.36 -0.88, 42.19 5.13, 42.8 9.85 M42.8 9.85 C44.18 17.85, 43.6 24.48, 42.8 29.54 M42.8 9.85 C42.84 15.62, 42.45 21.4, 42.8 29.54 M42.8 29.54 C41.02 36.05, 38.37 39.13, 32.95 39.39 M42.8 29.54 C44.46 34.95, 39.36 39.58, 32.95 39.39 M32.95 39.39 C29.69 41.44, 22.06 37.7, 9.85 39.39 M32.95 39.39 C28.53 38.99, 23.28 39.09, 9.85 39.39 M9.85 39.39 C1.63 38.07, 0.45 36.7, 0 29.54 M9.85 39.39 C1.96 39.6, 1.44 38.26, 0 29.54 M0 29.54 C0.81 25.82, 1.33 21.47, 0 9.85 M0 29.54 C0.2 22.53, -0.04 16.51, 0 9.85 M0 9.85 C1.08 2.71, 1.84 -1.22, 9.85 0 M0 9.85 C0.62 1.87, 4.29 -1.79, 9.85 0" stroke="#1e1e1e" stroke-width="2" fill="none"></path></g><g stroke-linecap="round" transform="translate(929.0742615750079 518.8556696031123) rotate(0 21.3984375 19.693359375)"><path d="M9.85 0 C16.07 0.53, 18.17 -1.76, 32.95 0 M9.85 0 C13.82 -0.09, 18.98 0.11, 32.95 0 M32.95 0 C40.15 -1.52, 42.66 2.52, 42.8 9.85 M32.95 0 C38.91 1.84, 44.11 5.35, 42.8 9.85 M42.8 9.85 C43.54 15.05, 43.28 19.8, 42.8 29.54 M42.8 9.85 C42.38 13.28, 41.91 18.65, 42.8 29.54 M42.8 29.54 C41.65 35.85, 40.96 38.38, 32.95 39.39 M42.8 29.54 C42.64 36.3, 37.5 38, 32.95 39.39 M32.95 39.39 C22.8 37.7, 13.25 39.64, 9.85 39.39 M32.95 39.39 C24.49 38.74, 13.96 38.59, 9.85 39.39 M9.85 39.39 C3.73 39.98, -1.15 36.29, 0 29.54 M9.85 39.39 C4.72 41.54, -1.62 37.46, 0 29.54 M0 29.54 C1.36 22.8, 0.69 12.46, 0 9.85 M0 29.54 C-0.22 23.22, 0.52 15.93, 0 9.85 M0 9.85 C-1.44 2.06, 3.82 -1.23, 9.85 0 M0 9.85 C1.01 1.49, 2.84 0, 9.85 0" stroke="#1e1e1e" stroke-width="2" fill="none"></path></g><g stroke-linecap="round" transform="translate(799.5820740750079 582.4455133531123) rotate(0 21.3984375 19.693359375)"><path d="M9.85 0 C13.85 -1.93, 19.24 -0.24, 32.95 0 M9.85 0 C15.91 0.09, 22.84 -0.73, 32.95 0 M32.95 0 C39.38 -0.76, 42.27 4.89, 42.8 9.85 M32.95 0 C40.83 2.07, 41.31 4.68, 42.8 9.85 M42.8 9.85 C43.22 17.41, 41.37 23.54, 42.8 29.54 M42.8 9.85 C41.84 14.74, 42.15 19.55, 42.8 29.54 M42.8 29.54 C44.24 35.1, 39.38 39.55, 32.95 39.39 M42.8 29.54 C40.78 34.72, 41.65 41.28, 32.95 39.39 M32.95 39.39 C22.34 39.21, 16.69 40.61, 9.85 39.39 M32.95 39.39 C26.61 38.61, 22.16 39.57, 9.85 39.39 M9.85 39.39 C2.13 39.57, 1.25 37.98, 0 29.54 M9.85 39.39 C1.67 40.74, 2.12 37.18, 0 29.54 M0 29.54 C0.63 21.19, 0.61 16.2, 0 9.85 M0 29.54 C0.57 24, -0.67 18.41, 0 9.85 M0 9.85 C0.53 2.05, 4.16 -1.56, 9.85 0 M0 9.85 C-0.44 3.28, 5.29 -1.12, 9.85 0" stroke="#1e1e1e" stroke-width="2" fill="none"></path></g><g stroke-linecap="round" transform="translate(863.1601990750079 578.5861383531123) rotate(0 21.3984375 19.693359375)"><path d="M9.85 0 C15.31 0.02, 24.12 -1.25, 32.95 0 M9.85 0 C16.76 -0.77, 22.97 -0.39, 32.95 0 M32.95 0 C38.99 1.6, 43.94 5.08, 42.8 9.85 M32.95 0 C38.03 1.4, 43.93 4.01, 42.8 9.85 M42.8 9.85 C41.34 16.27, 41.84 21.97, 42.8 29.54 M42.8 9.85 C42.06 13.66, 43.33 17.23, 42.8 29.54 M42.8 29.54 C42.66 36.27, 37.76 38.18, 32.95 39.39 M42.8 29.54 C44.93 38, 41.63 38.15, 32.95 39.39 M32.95 39.39 C30.08 40.83, 22.25 40.63, 9.85 39.39 M32.95 39.39 C27.42 39.53, 20.86 39.33, 9.85 39.39 M9.85 39.39 C4.54 41.26, -1.41 37.28, 0 29.54 M9.85 39.39 C5.4 40.46, 0.94 37.8, 0 29.54 M0 29.54 C0.68 22.73, -0.72 15.35, 0 9.85 M0 29.54 C-0.82 22.34, 0.16 15.74, 0 9.85 M0 9.85 C0.88 1.72, 2.9 0, 9.85 0 M0 9.85 C2.01 2.16, 1.05 0.76, 9.85 0" stroke="#1e1e1e" stroke-width="2" fill="none"></path></g><g stroke-linecap="round" transform="translate(927.3750428250079 578.9064508531123) rotate(0 11.9453125 19.693359375)"><path d="M5.97 0 C8.12 -0.86, 10.71 -0.31, 17.92 0 M5.97 0 C9.58 -0.14, 13.11 0.57, 17.92 0 M17.92 0 C23.04 1.8, 22.6 3.21, 23.89 5.97 M17.92 0 C23.03 0.73, 24.56 2.41, 23.89 5.97 M23.89 5.97 C22.67 14.31, 21.69 22.56, 23.89 33.41 M23.89 5.97 C24.46 13.63, 23.66 22.38, 23.89 33.41 M23.89 33.41 C22.14 36.19, 23.76 41.03, 17.92 39.39 M23.89 33.41 C26.01 36.16, 19.71 37.61, 17.92 39.39 M17.92 39.39 C13.58 40.21, 10.1 38.48, 5.97 39.39 M17.92 39.39 C14.78 39.48, 12.7 39.98, 5.97 39.39 M5.97 39.39 C0.59 40.57, 1.84 38.33, 0 33.41 M5.97 39.39 C2.93 41.08, 1.14 38.3, 0 33.41 M0 33.41 C-0.76 27.04, 0.59 22.59, 0 5.97 M0 33.41 C0.47 25.35, 0.64 17.73, 0 5.97 M0 5.97 C-0.39 1.99, 3.73 -0.97, 5.97 0 M0 5.97 C-2.23 2.75, 1.93 2.04, 5.97 0" stroke="#1e1e1e" stroke-width="2" fill="none"></path></g><g stroke-linecap="round" transform="translate(425.9133115125428 450.1877008531124) rotate(0 96.86067483389576 91.96895519854183)"><path d="M32 0 C57.8 -1.4, 88.01 -0.67, 161.72 0 M32 0 C72.64 0.53, 113.64 0.45, 161.72 0 M161.72 0 C183.77 0.89, 193.01 12.47, 193.72 32 M161.72 0 C184.59 1.42, 195.59 12.21, 193.72 32 M193.72 32 C191.85 70.99, 194 109.26, 193.72 151.94 M193.72 32 C193.62 74.32, 194 117.28, 193.72 151.94 M193.72 151.94 C194.74 172.16, 182.52 185.8, 161.72 183.94 M193.72 151.94 C193.8 171.78, 183.78 185.82, 161.72 183.94 M161.72 183.94 C125.58 183.13, 89.87 185.25, 32 183.94 M161.72 183.94 C113.71 183.18, 65.72 183.78, 32 183.94 M32 183.94 C9.85 182.3, -0.23 173.89, 0 151.94 M32 183.94 C9.07 185.87, -1.18 173.76, 0 151.94 M0 151.94 C0.81 128.15, -1.4 102.73, 0 32 M0 151.94 C1.38 121.7, 0.22 92.13, 0 32 M0 32 C0.54 12.54, 11.91 -0.77, 32 0 M0 32 C-1.68 8.53, 12.5 -1.51, 32 0" stroke="#1e1e1e" stroke-width="2" fill="none"></path></g><g stroke-linecap="round" transform="translate(442.8828553250079 470.5041071031124) rotate(0 21.3984375 19.693359375)"><path d="M9.85 0 C17.72 1.69, 25.13 -1.69, 32.95 0 M9.85 0 C20.01 -0.85, 27.46 0.66, 32.95 0 M32.95 0 C40.48 -0.94, 41.62 4.34, 42.8 9.85 M32.95 0 C37.85 -0.76, 43.14 1.32, 42.8 9.85 M42.8 9.85 C44.37 13.97, 41.89 20.65, 42.8 29.54 M42.8 9.85 C42.88 14.89, 43.76 19.63, 42.8 29.54 M42.8 29.54 C44.07 34.17, 38.46 41.07, 32.95 39.39 M42.8 29.54 C43.78 35.63, 40.26 39.84, 32.95 39.39 M32.95 39.39 C28.02 39.45, 20.1 40.06, 9.85 39.39 M32.95 39.39 C29.01 38.69, 23.28 39.67, 9.85 39.39 M9.85 39.39 C4.97 38.68, 1.95 37.59, 0 29.54 M9.85 39.39 C1.84 39.36, 2.18 35.99, 0 29.54 M0 29.54 C1.89 23.37, 1.92 21.28, 0 9.85 M0 29.54 C-0.55 23.79, -0.93 19.15, 0 9.85 M0 9.85 C1.69 3.67, 1.5 1.2, 9.85 0 M0 9.85 C1.21 5.29, 4.29 2.3, 9.85 0" stroke="#1e1e1e" stroke-width="2" fill="none"></path></g><g stroke-linecap="round" transform="translate(501.5234803250079 471.1134821031124) rotate(0 21.3984375 19.693359375)"><path d="M9.85 0 C16.71 -1.26, 27.15 1.87, 32.95 0 M32.95 0 C40.73 -0.48, 42.85 3.64, 42.8 9.85 M42.8 9.85 C42 16.54, 41.03 24.73, 42.8 29.54 M42.8 29.54 C44.79 35.24, 41.32 39.45, 32.95 39.39 M32.95 39.39 C25.46 39.21, 16.48 39.65, 9.85 39.39 M9.85 39.39 C4.31 41.35, -1.07 34.43, 0 29.54 M0 29.54 C0.34 21.57, 0.97 14.64, 0 9.85 M0 9.85 C1.96 5.18, 3.54 -0.33, 9.85 0" stroke="#1e1e1e" stroke-width="2.5" fill="none" stroke-dasharray="1.5 8"></path></g><g stroke-linecap="round" transform="translate(560.6978765903922 580.1646277320785) rotate(0 11.9453125 19.693359375)"><path d="M5.97 0 C9.71 -0.19, 12.02 -0.45, 17.92 0 M5.97 0 C10.85 0.41, 14.91 0.48, 17.92 0 M17.92 0 C23.06 -1.51, 25.84 0.13, 23.89 5.97 M17.92 0 C24.11 -0.84, 24.79 0.35, 23.89 5.97 M23.89 5.97 C25.08 15.03, 22.88 21.51, 23.89 33.41 M23.89 5.97 C24.07 14, 24.81 20.85, 23.89 33.41 M23.89 33.41 C22.76 37.03, 22.54 39.78, 17.92 39.39 M23.89 33.41 C22.54 37.87, 21.16 39.23, 17.92 39.39 M17.92 39.39 C14.87 39.61, 13.48 39.17, 5.97 39.39 M17.92 39.39 C15.16 39.91, 12.53 39.7, 5.97 39.39 M5.97 39.39 C0.19 40.59, 0.36 37.68, 0 33.41 M5.97 39.39 C0.07 39.57, -1.2 38.29, 0 33.41 M0 33.41 C-2.05 22.01, -0.97 13.32, 0 5.97 M0 33.41 C-0.97 22.92, -0.23 13.98, 0 5.97 M0 5.97 C-0.82 3.9, 0.77 0.88, 5.97 0 M0 5.97 C-0.82 1.22, 3.39 -0.77, 5.97 0" stroke="#1e1e1e" stroke-width="2" fill="none"></path></g><g mask="url(#mask-z7N5Czv9YVzwBiOjciI_E)" stroke-linecap="round"><g transform="translate(772.8747098668672 531.5288228619561) rotate(0 -76.12002434326644 1.293469826691961)"><path d="M-0.68 0.99 C-25.71 1.42, -125.93 1.53, -151.12 1.82 M1.16 0.46 C-23.84 1.1, -125.9 2.35, -151.48 2.95" stroke="#1e1e1e" stroke-width="2" fill="none"></path></g><g transform="translate(772.8747098668672 531.5288228619561) rotate(0 -76.12002434326644 1.293469826691961)"><path d="M-128.14 -6 C-131.74 -2.29, -139.84 -1.44, -151.48 2.95 M-128.14 -6 C-135.16 -3.59, -142.72 0.14, -151.48 2.95" stroke="#1e1e1e" stroke-width="2" fill="none"></path></g><g transform="translate(772.8747098668672 531.5288228619561) rotate(0 -76.12002434326644 1.293469826691961)"><path d="M-127.85 11.09 C-131.39 11.02, -139.56 8.07, -151.48 2.95 M-127.85 11.09 C-134.9 8.21, -142.56 6.63, -151.48 2.95" stroke="#1e1e1e" stroke-width="2" fill="none"></path></g></g><mask id="mask-z7N5Czv9YVzwBiOjciI_E"><rect x="0" y="0" fill="#fff" width="1025.1147585534" height="634.1157625153401"></rect><rect x="666.7546855236008" y="521.3222926886481" fill="#000" width="60" height="23" opacity="1"></rect></mask><g transform="translate(666.7546855236008 521.322292688648) rotate(0 30.960293164439463 11.911340659074511)"><text x="30" y="18.400390625" font-family="Helvetica, Segoe UI Emoji" font-size="20px" fill="#1e1e1e" text-anchor="middle" style="white-space: pre;" direction="ltr" dominant-baseline="alphabetic">再截取</text></g><g stroke-linecap="round" transform="translate(504.4922303250079 472.4962946031124) rotate(0 4.84973793996059 4.884730788913714)"><path d="M2.42 0 C3.8 0.16, 5.25 -0.03, 7.27 0 M2.42 0 C3.89 0.04, 5.33 -0.05, 7.27 0 M7.27 0 C8.3 -0.06, 10.36 0.52, 9.7 2.42 M7.27 0 C9.58 0.03, 10.44 0.4, 9.7 2.42 M9.7 2.42 C9.86 4.01, 9.8 5.72, 9.7 7.34 M9.7 2.42 C9.62 3.61, 9.69 4.83, 9.7 7.34 M9.7 7.34 C9.98 8.94, 9.54 10.4, 7.27 9.77 M9.7 7.34 C9.8 8.83, 9.02 10.15, 7.27 9.77 M7.27 9.77 C5.43 9.83, 3.75 9.82, 2.42 9.77 M7.27 9.77 C5.41 9.71, 3.51 9.85, 2.42 9.77 M2.42 9.77 C0.5 10.05, -0.09 8.55, 0 7.34 M2.42 9.77 C0.83 9.73, 0.5 9.02, 0 7.34 M0 7.34 C-0.15 6.18, 0.07 5.18, 0 2.42 M0 7.34 C-0.05 6.19, -0.02 5.02, 0 2.42 M0 2.42 C-0.17 1.47, 0.82 -0.5, 2.42 0 M0 2.42 C0.6 0.97, 0.92 -0.59, 2.42 0" stroke="#1e1e1e" stroke-width="2" fill="none"></path></g><g stroke-linecap="round" transform="translate(516.1192679438647 483.399539340651) rotate(0 4.84973793996059 4.884730788913714)"><path d="M2.42 0 C3.66 -0.05, 4.71 0.01, 7.27 0 M2.42 0 C4.25 -0.05, 6.06 -0.02, 7.27 0 M7.27 0 C9.56 -0.29, 10.3 0.83, 9.7 2.42 M7.27 0 C9.63 -0.4, 9.84 1.44, 9.7 2.42 M9.7 2.42 C9.8 4.01, 9.63 5.13, 9.7 7.34 M9.7 2.42 C9.69 4.26, 9.72 6.13, 9.7 7.34 M9.7 7.34 C10.35 9.59, 8.98 9.66, 7.27 9.77 M9.7 7.34 C9.83 9.34, 9.47 10.26, 7.27 9.77 M7.27 9.77 C6.27 9.84, 5.18 9.82, 2.42 9.77 M7.27 9.77 C5.7 9.83, 3.95 9.79, 2.42 9.77 M2.42 9.77 C0.72 9.36, 0.02 8.93, 0 7.34 M2.42 9.77 C1.31 9.83, -0.61 8.6, 0 7.34 M0 7.34 C0.07 6.18, -0.09 4.95, 0 2.42 M0 7.34 C-0.01 5.81, -0.01 4.38, 0 2.42 M0 2.42 C0.01 0.3, 1.33 0.14, 2.42 0 M0 2.42 C0.11 0.22, 0.45 0.41, 2.42 0" stroke="#1e1e1e" stroke-width="2" fill="none"></path></g><g stroke-linecap="round" transform="translate(529.7094408244676 495.43339678629735) rotate(0 4.84973793996059 4.884730788913714)"><path d="M2.42 0 C4.33 0.03, 6.36 -0.01, 7.27 0 M2.42 0 C4.14 0, 6.07 -0.03, 7.27 0 M7.27 0 C9.49 0.02, 10.34 0.46, 9.7 2.42 M7.27 0 C9.03 0.63, 9.62 1.51, 9.7 2.42 M9.7 2.42 C9.62 3.82, 9.83 5.36, 9.7 7.34 M9.7 2.42 C9.74 3.73, 9.78 5.12, 9.7 7.34 M9.7 7.34 C9.79 8.85, 9 10.1, 7.27 9.77 M9.7 7.34 C10.28 9.45, 8.37 9.66, 7.27 9.77 M7.27 9.77 C5.75 9.81, 3.98 9.87, 2.42 9.77 M7.27 9.77 C6.17 9.82, 5.14 9.73, 2.42 9.77 M2.42 9.77 C0.82 9.74, 0.43 9.01, 0 7.34 M2.42 9.77 C0.2 9.41, -0.48 8.22, 0 7.34 M0 7.34 C-0.11 6.06, 0.01 4.76, 0 2.42 M0 7.34 C-0.02 5.95, 0.01 4.32, 0 2.42 M0 2.42 C0.52 0.95, 0.91 -0.51, 2.42 0 M0 2.42 C-0.36 1.22, 0.84 -0.53, 2.42 0" stroke="#1e1e1e" stroke-width="2" fill="none"></path></g><g stroke-linecap="round" transform="translate(557.8786630024582 471.3660369747701) rotate(0 21.3984375 19.693359375)"><path d="M9.85 0 C17.87 -0.2, 23.95 -0.84, 32.95 0 M32.95 0 C38.66 -1.78, 42.61 5.28, 42.8 9.85 M42.8 9.85 C44.87 13.86, 43.33 21.58, 42.8 29.54 M42.8 29.54 C42.58 37.93, 39.74 40.41, 32.95 39.39 M32.95 39.39 C25.28 37.65, 13.86 39.39, 9.85 39.39 M9.85 39.39 C2.72 40.22, -0.06 38.06, 0 29.54 M0 29.54 C0.3 22.74, 1.46 15.24, 0 9.85 M0 9.85 C-1.37 2.98, 4.21 1.46, 9.85 0" stroke="#1e1e1e" stroke-width="2.5" fill="none" stroke-dasharray="1.5 8"></path></g><g stroke-linecap="round" transform="translate(560.8474130024582 472.7488494747701) rotate(0 4.849737939960619 4.884730788913714)"><path d="M2.42 0 C4.07 -0.06, 5.44 -0.14, 7.27 0 M2.42 0 C3.91 0.01, 5.32 -0.04, 7.27 0 M7.27 0 C9.01 0.55, 9.63 1.42, 9.7 2.42 M7.27 0 C8.98 0.39, 10.45 0.4, 9.7 2.42 M9.7 2.42 C9.66 3.5, 9.67 4.62, 9.7 7.34 M9.7 2.42 C9.73 3.87, 9.73 5.39, 9.7 7.34 M9.7 7.34 C10.2 9.39, 8.44 9.67, 7.27 9.77 M9.7 7.34 C10.05 9.52, 9.18 10.5, 7.27 9.77 M7.27 9.77 C5.57 9.92, 4.28 9.7, 2.42 9.77 M7.27 9.77 C5.61 9.76, 4 9.77, 2.42 9.77 M2.42 9.77 C0.28 9.45, -0.42 8.32, 0 7.34 M2.42 9.77 C0.43 10.04, 0 8.46, 0 7.34 M0 7.34 C0 5.98, -0.02 4.67, 0 2.42 M0 7.34 C0.06 5.4, 0.01 3.36, 0 2.42 M0 2.42 C-0.32 1.17, 0.83 -0.46, 2.42 0 M0 2.42 C-0.06 1.42, 1.51 0.31, 2.42 0" stroke="#1e1e1e" stroke-width="2" fill="none"></path></g><g stroke-linecap="round" transform="translate(572.474450621315 483.6520942123087) rotate(0 4.849737939960619 4.884730788913714)"><path d="M2.42 0 C3.77 -0.14, 5.24 0.17, 7.27 0 M2.42 0 C3.75 -0.04, 4.93 0.07, 7.27 0 M7.27 0 C8.82 0.61, 9.77 1.15, 9.7 2.42 M7.27 0 C9.65 -0.41, 9.06 1.4, 9.7 2.42 M9.7 2.42 C9.65 3.59, 9.69 4.78, 9.7 7.34 M9.7 2.42 C9.72 4.41, 9.76 6.36, 9.7 7.34 M9.7 7.34 C9.24 8.86, 9.2 10.25, 7.27 9.77 M9.7 7.34 C9.99 9.69, 9.07 10.07, 7.27 9.77 M7.27 9.77 C5.67 9.71, 3.85 9.76, 2.42 9.77 M7.27 9.77 C6.17 9.77, 4.89 9.73, 2.42 9.77 M2.42 9.77 C0.39 9.13, -0.33 9.2, 0 7.34 M2.42 9.77 C0.8 9.27, -0.25 9.04, 0 7.34 M0 7.34 C-0.02 6.19, 0.16 5.12, 0 2.42 M0 7.34 C0 6.18, -0.05 5.18, 0 2.42 M0 2.42 C0.03 0.35, 0.75 0.53, 2.42 0 M0 2.42 C0.7 1.12, 0.58 0.59, 2.42 0" stroke="#1e1e1e" stroke-width="2" fill="none"></path></g><g stroke-linecap="round" transform="translate(586.0646235019179 495.68595165795506) rotate(0 4.849737939960619 4.884730788913714)"><path d="M2.42 0 C3.67 0.18, 4.88 0.16, 7.27 0 M2.42 0 C3.91 0.08, 5.36 0.08, 7.27 0 M7.27 0 C8.97 0.34, 10.36 0.45, 9.7 2.42 M7.27 0 C8.25 0.59, 9.11 0.55, 9.7 2.42 M9.7 2.42 C9.69 4.11, 9.85 5.49, 9.7 7.34 M9.7 2.42 C9.76 3.87, 9.65 5.2, 9.7 7.34 M9.7 7.34 C10.01 9.45, 9.14 10.4, 7.27 9.77 M9.7 7.34 C9.88 9.26, 9.35 9.15, 7.27 9.77 M7.27 9.77 C5.48 9.74, 3.44 9.77, 2.42 9.77 M7.27 9.77 C5.78 9.73, 4.36 9.69, 2.42 9.77 M2.42 9.77 C0.48 10.01, 0 8.53, 0 7.34 M2.42 9.77 C0.56 9.85, -0.56 8.97, 0 7.34 M0 7.34 C0.16 6, -0.12 4.78, 0 2.42 M0 7.34 C-0.04 5.81, 0 4.13, 0 2.42 M0 2.42 C-0.05 1.34, 1.42 0.27, 2.42 0 M0 2.42 C-0.23 1.4, 1.03 -0.08, 2.42 0" stroke="#1e1e1e" stroke-width="2" fill="none"></path></g><g stroke-linecap="round" transform="translate(500.5708610722638 527.8423278362902) rotate(0 21.3984375 19.693359375)"><path d="M9.85 0 C14.7 -1.87, 22.25 1.1, 32.95 0 M32.95 0 C40 -0.46, 43.88 2.27, 42.8 9.85 M42.8 9.85 C42.46 13.97, 42.29 17.55, 42.8 29.54 M42.8 29.54 C42.75 37.5, 41.22 41.01, 32.95 39.39 M32.95 39.39 C28.33 38.89, 21.16 38.54, 9.85 39.39 M9.85 39.39 C2.87 41.33, 1.26 36.07, 0 29.54 M0 29.54 C-0.46 26.76, 1.87 21.46, 0 9.85 M0 9.85 C-0.14 3.01, 4.86 -1.91, 9.85 0" stroke="#1e1e1e" stroke-width="2.5" fill="none" stroke-dasharray="1.5 8"></path></g><g stroke-linecap="round" transform="translate(503.5396110722638 529.2251403362902) rotate(0 4.84973793996059 4.884730788913714)"><path d="M2.42 0 C3.71 0.1, 5.05 -0.02, 7.27 0 M2.42 0 C4.18 -0.03, 5.84 -0.01, 7.27 0 M7.27 0 C8.69 -0.48, 9.68 1.27, 9.7 2.42 M7.27 0 C9.54 0.62, 9.05 0.74, 9.7 2.42 M9.7 2.42 C9.55 3.54, 9.67 4.92, 9.7 7.34 M9.7 2.42 C9.62 4.28, 9.67 6.07, 9.7 7.34 M9.7 7.34 C10.27 9.41, 8.84 9.68, 7.27 9.77 M9.7 7.34 C10.31 8.23, 9.62 9.51, 7.27 9.77 M7.27 9.77 C5.88 9.72, 4.66 9.91, 2.42 9.77 M7.27 9.77 C5.84 9.77, 4.38 9.7, 2.42 9.77 M2.42 9.77 C0.6 10.13, -0.31 8.63, 0 7.34 M2.42 9.77 C1.3 9.32, 0.4 8.25, 0 7.34 M0 7.34 C-0.1 5.97, -0.11 4.88, 0 2.42 M0 7.34 C0.06 6.1, -0.02 4.97, 0 2.42 M0 2.42 C0.37 0.22, 0.18 -0.04, 2.42 0 M0 2.42 C0.22 0.12, 0.96 -0.12, 2.42 0" stroke="#1e1e1e" stroke-width="2" fill="none"></path></g><g stroke-linecap="round" transform="translate(515.1666486911206 540.1283850738289) rotate(0 4.84973793996059 4.884730788913714)"><path d="M2.42 0 C3.45 -0.05, 4.48 -0.09, 7.27 0 M2.42 0 C3.53 -0.01, 4.65 -0.05, 7.27 0 M7.27 0 C8.87 0.46, 10.27 1.35, 9.7 2.42 M7.27 0 C8.24 -0.07, 9.22 0.94, 9.7 2.42 M9.7 2.42 C9.65 3.97, 9.79 5.2, 9.7 7.34 M9.7 2.42 C9.66 3.68, 9.75 4.83, 9.7 7.34 M9.7 7.34 C9.65 8.87, 9.42 9.13, 7.27 9.77 M9.7 7.34 C10.43 8.71, 8.61 9.42, 7.27 9.77 M7.27 9.77 C5.34 9.89, 3.51 9.67, 2.42 9.77 M7.27 9.77 C6 9.7, 4.83 9.81, 2.42 9.77 M2.42 9.77 C0.5 9.44, 0.43 8.57, 0 7.34 M2.42 9.77 C1.21 9.06, -0.41 8.26, 0 7.34 M0 7.34 C-0.11 5.53, -0.08 3.64, 0 2.42 M0 7.34 C-0.04 5.95, 0.04 4.44, 0 2.42 M0 2.42 C-0.63 0.77, 1 -0.6, 2.42 0 M0 2.42 C0.16 0.69, 0.41 -0.18, 2.42 0" stroke="#1e1e1e" stroke-width="2" fill="none"></path></g><g stroke-linecap="round" transform="translate(528.7568215717235 552.1622425194753) rotate(0 4.84973793996059 4.884730788913714)"><path d="M2.42 0 C4.22 -0.08, 5.72 0.08, 7.27 0 M2.42 0 C3.6 -0.05, 4.82 0.06, 7.27 0 M7.27 0 C9.46 0.54, 9.13 0.75, 9.7 2.42 M7.27 0 C8.41 0.13, 9.57 0.1, 9.7 2.42 M9.7 2.42 C9.8 3.73, 9.6 4.87, 9.7 7.34 M9.7 2.42 C9.76 4.36, 9.69 6.17, 9.7 7.34 M9.7 7.34 C10.23 8.32, 9.52 9.55, 7.27 9.77 M9.7 7.34 C9.41 8.62, 9.56 9.22, 7.27 9.77 M7.27 9.77 C6 9.69, 4.67 9.74, 2.42 9.77 M7.27 9.77 C5.76 9.8, 4.26 9.72, 2.42 9.77 M2.42 9.77 C1.23 9.38, 0.35 8.35, 0 7.34 M2.42 9.77 C0.4 9.07, 0.48 8.44, 0 7.34 M0 7.34 C-0.08 6.2, -0.01 5.42, 0 2.42 M0 7.34 C0.05 6.07, -0.07 4.94, 0 2.42 M0 2.42 C0.2 0.21, 0.94 -0.1, 2.42 0 M0 2.42 C-0.4 0.62, 1.32 -0.68, 2.42 0" stroke="#1e1e1e" stroke-width="2" fill="none"></path></g><g stroke-linecap="round" transform="translate(556.9260437497142 528.094882707948) rotate(0 21.3984375 19.693359375)"><path d="M9.85 0 C14.56 -2.09, 21.11 1.32, 32.95 0 M32.95 0 C40.46 1.92, 41.31 1.68, 42.8 9.85 M42.8 9.85 C41.73 18.32, 41.47 24.05, 42.8 29.54 M42.8 29.54 C43.09 34.4, 39.45 39.1, 32.95 39.39 M32.95 39.39 C23.65 38.29, 15.2 39.75, 9.85 39.39 M9.85 39.39 C4.33 39.44, 0.14 37.95, 0 29.54 M0 29.54 C-1.17 25.61, 0.72 17.97, 0 9.85 M0 9.85 C0.65 3.68, 3.04 -0.93, 9.85 0" stroke="#1e1e1e" stroke-width="2.5" fill="none" stroke-dasharray="1.5 8"></path></g><g stroke-linecap="round" transform="translate(559.8947937497142 529.477695207948) rotate(0 4.849737939960562 4.884730788913714)"><path d="M2.42 0 C3.78 -0.12, 5.3 0.01, 7.27 0 M2.42 0 C3.8 0.07, 5.21 -0.02, 7.27 0 M7.27 0 C9.41 0.22, 9.59 0.76, 9.7 2.42 M7.27 0 C9.57 0.76, 9.68 0.79, 9.7 2.42 M9.7 2.42 C9.66 4.28, 9.55 5.96, 9.7 7.34 M9.7 2.42 C9.63 4.25, 9.72 5.94, 9.7 7.34 M9.7 7.34 C10.32 9.48, 8.38 9.93, 7.27 9.77 M9.7 7.34 C10.15 8.32, 9.44 9.54, 7.27 9.77 M7.27 9.77 C5.76 9.69, 4.25 9.79, 2.42 9.77 M7.27 9.77 C5.45 9.75, 3.48 9.75, 2.42 9.77 M2.42 9.77 C0.66 10.42, -0.1 8.5, 0 7.34 M2.42 9.77 C0.75 9.02, 0.36 8.48, 0 7.34 M0 7.34 C0.13 6.23, -0.1 5.17, 0 2.42 M0 7.34 C0.06 5.49, -0.03 3.61, 0 2.42 M0 2.42 C-0.48 0.27, 1.15 -0.12, 2.42 0 M0 2.42 C0.16 0.42, 0.68 0.7, 2.42 0" stroke="#1e1e1e" stroke-width="2" fill="none"></path></g><g stroke-linecap="round" transform="translate(571.5218313685709 540.3809399454866) rotate(0 4.849737939960562 4.884730788913714)"><path d="M2.42 0 C4.26 -0.07, 6.18 -0.1, 7.27 0 M2.42 0 C3.93 -0.01, 5.38 0.03, 7.27 0 M7.27 0 C8.34 0.17, 9.24 0.41, 9.7 2.42 M7.27 0 C9.04 0.62, 9.98 1.5, 9.7 2.42 M9.7 2.42 C9.81 3.61, 9.57 4.64, 9.7 7.34 M9.7 2.42 C9.69 3.53, 9.73 4.82, 9.7 7.34 M9.7 7.34 C9.16 9.24, 9 9.15, 7.27 9.77 M9.7 7.34 C10.21 8.78, 8.98 10.5, 7.27 9.77 M7.27 9.77 C6.22 9.63, 4.83 9.65, 2.42 9.77 M7.27 9.77 C6.03 9.74, 4.9 9.79, 2.42 9.77 M2.42 9.77 C1.28 9.72, -0.06 8.57, 0 7.34 M2.42 9.77 C0.58 10.33, 0.38 9.54, 0 7.34 M0 7.34 C-0.1 6.08, 0.15 4.81, 0 2.42 M0 7.34 C0.07 5.75, -0.06 4.21, 0 2.42 M0 2.42 C0.35 1.24, 0.59 0.48, 2.42 0 M0 2.42 C-0.45 0.26, 1.06 0.7, 2.42 0" stroke="#1e1e1e" stroke-width="2" fill="none"></path></g><g stroke-linecap="round" transform="translate(585.1120042491739 552.4147973911329) rotate(0 4.849737939960562 4.884730788913714)"><path d="M2.42 0 C3.79 -0.06, 4.96 -0.08, 7.27 0 M2.42 0 C3.57 -0.03, 4.58 -0.03, 7.27 0 M7.27 0 C8.66 0.57, 9.13 0.3, 9.7 2.42 M7.27 0 C9.62 -0.41, 9.67 1.31, 9.7 2.42 M9.7 2.42 C9.67 3.73, 9.76 5.27, 9.7 7.34 M9.7 2.42 C9.74 3.45, 9.66 4.63, 9.7 7.34 M9.7 7.34 C9.81 9.02, 8.76 9.61, 7.27 9.77 M9.7 7.34 C9.55 8.96, 9 10.34, 7.27 9.77 M7.27 9.77 C6.01 9.6, 4.62 9.71, 2.42 9.77 M7.27 9.77 C5.7 9.85, 4.19 9.8, 2.42 9.77 M2.42 9.77 C1.22 9.92, 0.34 9.29, 0 7.34 M2.42 9.77 C0.21 9.48, -0.69 9.35, 0 7.34 M0 7.34 C-0.01 5.55, 0.07 4.08, 0 2.42 M0 7.34 C0.02 5.67, 0.02 4.01, 0 2.42 M0 2.42 C-0.28 0.23, 0.2 0.02, 2.42 0 M0 2.42 C0.02 1.08, 0.43 -0.67, 2.42 0" stroke="#1e1e1e" stroke-width="2" fill="none"></path></g><g stroke-linecap="round" transform="translate(443.980846672044 525.590010998407) rotate(0 21.3984375 19.693359375)"><path d="M9.85 0 C14.88 1.1, 21.6 -0.33, 32.95 0 M32.95 0 C39.08 -0.61, 41.37 3.23, 42.8 9.85 M42.8 9.85 C41.29 16.95, 41.74 24.74, 42.8 29.54 M42.8 29.54 C42.45 34.25, 38.81 38.97, 32.95 39.39 M32.95 39.39 C22.55 37.43, 16.22 38.72, 9.85 39.39 M9.85 39.39 C5.24 41.09, 1.35 35.96, 0 29.54 M0 29.54 C1.71 23.24, -0.89 17.37, 0 9.85 M0 9.85 C1.73 1.85, 2.49 -0.75, 9.85 0" stroke="#1e1e1e" stroke-width="2.5" fill="none" stroke-dasharray="1.5 8"></path></g><g stroke-linecap="round" transform="translate(446.949596672044 526.972823498407) rotate(0 4.84973793996059 4.884730788913714)"><path d="M2.42 0 C3.55 -0.04, 4.81 -0.06, 7.27 0 M2.42 0 C3.6 0.05, 4.57 -0.02, 7.27 0 M7.27 0 C8.48 0.12, 9.58 0.19, 9.7 2.42 M7.27 0 C8.62 -0.16, 10.45 1.29, 9.7 2.42 M9.7 2.42 C9.82 3.84, 9.85 5.5, 9.7 7.34 M9.7 2.42 C9.76 4.16, 9.78 6.01, 9.7 7.34 M9.7 7.34 C9.45 8.66, 9.47 9.29, 7.27 9.77 M9.7 7.34 C9.4 8.67, 9.49 9.71, 7.27 9.77 M7.27 9.77 C6.12 9.63, 4.81 9.71, 2.42 9.77 M7.27 9.77 C5.61 9.71, 3.88 9.69, 2.42 9.77 M2.42 9.77 C0.46 9.16, 0.42 8.51, 0 7.34 M2.42 9.77 C0.07 9.19, -0.14 8.53, 0 7.34 M0 7.34 C-0.09 6.21, 0.04 5.31, 0 2.42 M0 7.34 C0.04 6.23, 0.03 5.24, 0 2.42 M0 2.42 C-0.35 0.65, 1.26 -0.59, 2.42 0 M0 2.42 C0.25 1.04, 0.83 0.17, 2.42 0" stroke="#1e1e1e" stroke-width="2" fill="none"></path></g><g stroke-linecap="round" transform="translate(458.57663429090076 537.8760682359457) rotate(0 4.84973793996059 4.884730788913714)"><path d="M2.42 0 C4.08 -0.05, 5.69 0, 7.27 0 M2.42 0 C4.15 -0.02, 5.96 0, 7.27 0 M7.27 0 C8.77 -0.62, 9.46 0.67, 9.7 2.42 M7.27 0 C9.64 0.48, 9.69 0.34, 9.7 2.42 M9.7 2.42 C9.87 3.56, 9.82 4.4, 9.7 7.34 M9.7 2.42 C9.79 3.81, 9.68 5.21, 9.7 7.34 M9.7 7.34 C10.28 8.48, 8.63 9.52, 7.27 9.77 M9.7 7.34 C10.29 8.9, 8.44 9.38, 7.27 9.77 M7.27 9.77 C5.82 9.71, 4.73 9.68, 2.42 9.77 M7.27 9.77 C6.1 9.69, 4.81 9.69, 2.42 9.77 M2.42 9.77 C1.22 9.31, -0.64 8.46, 0 7.34 M2.42 9.77 C0.67 9.34, -0.64 8.87, 0 7.34 M0 7.34 C0.05 5.71, -0.13 3.74, 0 2.42 M0 7.34 C0.01 5.88, -0.05 4.43, 0 2.42 M0 2.42 C0.45 0.22, 1.03 0.2, 2.42 0 M0 2.42 C0.02 0.98, 1.21 -0.22, 2.42 0" stroke="#1e1e1e" stroke-width="2" fill="none"></path></g><g stroke-linecap="round" transform="translate(472.1668071715037 549.9099256815921) rotate(0 4.84973793996059 4.884730788913714)"><path d="M2.42 0 C3.66 0, 5.23 0.14, 7.27 0 M2.42 0 C4.22 0.02, 6.11 -0.07, 7.27 0 M7.27 0 C8.66 -0.14, 10.35 1.23, 9.7 2.42 M7.27 0 C8.88 -0.47, 8.95 1.43, 9.7 2.42 M9.7 2.42 C9.83 3.73, 9.69 5.18, 9.7 7.34 M9.7 2.42 C9.68 3.39, 9.79 4.38, 9.7 7.34 M9.7 7.34 C9.44 8.71, 9.41 9.72, 7.27 9.77 M9.7 7.34 C9.25 8.57, 8.67 9.83, 7.27 9.77 M7.27 9.77 C6.3 9.69, 5.07 9.87, 2.42 9.77 M7.27 9.77 C6.06 9.68, 4.98 9.7, 2.42 9.77 M2.42 9.77 C0.17 9.27, -0.12 8.58, 0 7.34 M2.42 9.77 C0.17 9.67, 0.39 8.53, 0 7.34 M0 7.34 C-0.15 5.91, -0.01 4.84, 0 2.42 M0 7.34 C-0.05 6.29, 0.05 5.21, 0 2.42 M0 2.42 C0.22 1.01, 0.83 0.15, 2.42 0 M0 2.42 C0.41 0.59, 1.43 -0.05, 2.42 0" stroke="#1e1e1e" stroke-width="2" fill="none"></path></g><g stroke-linecap="round" transform="translate(501.9266819622158 582.872705134343) rotate(0 21.39843750000003 19.693359375)"><path d="M9.85 0 C18.11 -1.33, 23.96 -0.84, 32.95 0 M32.95 0 C39.13 1.36, 44.56 2.82, 42.8 9.85 M42.8 9.85 C44.41 12.54, 43.97 18.56, 42.8 29.54 M42.8 29.54 C42.38 35.69, 40.36 37.97, 32.95 39.39 M32.95 39.39 C29.04 37.97, 22.61 40.45, 9.85 39.39 M9.85 39.39 C2.87 40.59, -0.82 37.39, 0 29.54 M0 29.54 C-0.39 24.95, 1.25 16.75, 0 9.85 M0 9.85 C1.18 2.21, 3.15 0.66, 9.85 0" stroke="#1e1e1e" stroke-width="2.5" fill="none" stroke-dasharray="1.5 8"></path></g><g stroke-linecap="round" transform="translate(504.8954319622158 584.255517634343) rotate(0 4.84973793996059 4.884730788913714)"><path d="M2.42 0 C3.92 -0.05, 5.44 0.12, 7.27 0 M2.42 0 C4.29 0.09, 6.26 -0.06, 7.27 0 M7.27 0 C9.3 -0.03, 9.56 0.67, 9.7 2.42 M7.27 0 C9.22 -0.54, 9.23 1.16, 9.7 2.42 M9.7 2.42 C9.77 4.34, 9.68 6.22, 9.7 7.34 M9.7 2.42 C9.69 3.72, 9.69 5.03, 9.7 7.34 M9.7 7.34 C10.11 8.66, 9.29 9.41, 7.27 9.77 M9.7 7.34 C9.65 9.21, 8.21 9.35, 7.27 9.77 M7.27 9.77 C5.72 9.92, 4.15 9.74, 2.42 9.77 M7.27 9.77 C5.4 9.83, 3.66 9.73, 2.42 9.77 M2.42 9.77 C0.96 10.25, -0.13 8.64, 0 7.34 M2.42 9.77 C0.14 10.05, 0.34 9.1, 0 7.34 M0 7.34 C0.02 6.19, 0.02 5.09, 0 2.42 M0 7.34 C-0.07 5.78, 0.04 4.31, 0 2.42 M0 2.42 C-0.62 0.91, 0.85 0.24, 2.42 0 M0 2.42 C0.3 1.04, 0.23 -0.11, 2.42 0" stroke="#1e1e1e" stroke-width="2" fill="none"></path></g><g stroke-linecap="round" transform="translate(516.5224695810725 595.1587623718817) rotate(0 4.84973793996059 4.884730788913714)"><path d="M2.42 0 C3.53 0.12, 4.85 -0.03, 7.27 0 M2.42 0 C3.58 -0.09, 4.64 -0.02, 7.27 0 M7.27 0 C8.75 -0.14, 9.98 0.33, 9.7 2.42 M7.27 0 C8.42 0.36, 10.28 1.42, 9.7 2.42 M9.7 2.42 C9.67 3.61, 9.64 4.7, 9.7 7.34 M9.7 2.42 C9.68 3.97, 9.75 5.36, 9.7 7.34 M9.7 7.34 C10.09 8.6, 8.85 9.99, 7.27 9.77 M9.7 7.34 C9.02 8.54, 9.1 10.25, 7.27 9.77 M7.27 9.77 C6.04 9.76, 4.83 9.66, 2.42 9.77 M7.27 9.77 C5.72 9.74, 4.04 9.84, 2.42 9.77 M2.42 9.77 C0.68 9.45, -0.58 9.21, 0 7.34 M2.42 9.77 C1.15 9.91, -0.66 9.29, 0 7.34 M0 7.34 C0.03 6.13, 0.01 5.27, 0 2.42 M0 7.34 C0.05 5.69, -0.06 4.01, 0 2.42 M0 2.42 C0.04 1.05, 1.07 0.2, 2.42 0 M0 2.42 C-0.57 0.7, 0.36 0.38, 2.42 0" stroke="#1e1e1e" stroke-width="2" fill="none"></path></g><g stroke-linecap="round" transform="translate(530.1126424616755 607.192619817528) rotate(0 4.84973793996059 4.884730788913714)"><path d="M2.42 0 C3.83 -0.05, 4.82 -0.05, 7.27 0 M2.42 0 C4.39 0.01, 6.24 0, 7.27 0 M7.27 0 C9.17 -0.47, 9.29 1.12, 9.7 2.42 M7.27 0 C9.47 0.61, 9.09 1.07, 9.7 2.42 M9.7 2.42 C9.63 4.22, 9.7 5.77, 9.7 7.34 M9.7 2.42 C9.75 4.01, 9.74 5.63, 9.7 7.34 M9.7 7.34 C9.65 9.18, 8.3 9.4, 7.27 9.77 M9.7 7.34 C9.91 9.44, 8.63 9.94, 7.27 9.77 M7.27 9.77 C5.47 9.64, 3.47 9.71, 2.42 9.77 M7.27 9.77 C5.52 9.82, 3.71 9.72, 2.42 9.77 M2.42 9.77 C0.23 10.01, 0.29 9.09, 0 7.34 M2.42 9.77 C0.15 10.1, -0.65 9.09, 0 7.34 M0 7.34 C0.01 6.21, 0.06 4.86, 0 2.42 M0 7.34 C-0.08 6.09, 0 4.83, 0 2.42 M0 2.42 C0.26 1.01, 0.31 -0.09, 2.42 0 M0 2.42 C-0.45 1.18, 0.56 -0.54, 2.42 0" stroke="#1e1e1e" stroke-width="2" fill="none"></path></g><g stroke-linecap="round" transform="translate(445.33666756199597 580.6203882964599) rotate(0 21.3984375 19.693359375)"><path d="M9.85 0 C13.98 0.07, 21.42 -1.71, 32.95 0 M32.95 0 C39.5 1.33, 42.22 3.98, 42.8 9.85 M42.8 9.85 C42.54 15.82, 42.79 19.17, 42.8 29.54 M42.8 29.54 C42.85 36.26, 38.91 38.32, 32.95 39.39 M32.95 39.39 C25.62 38.25, 20.74 40.63, 9.85 39.39 M9.85 39.39 C3.04 38.26, -0.61 36.72, 0 29.54 M0 29.54 C-0.55 21.56, 1.03 16.62, 0 9.85 M0 9.85 C-1.89 3.81, 5.2 1.43, 9.85 0" stroke="#1e1e1e" stroke-width="2.5" fill="none" stroke-dasharray="1.5 8"></path></g><g stroke-linecap="round" transform="translate(448.30541756199597 582.0032007964599) rotate(0 4.84973793996059 4.884730788913714)"><path d="M2.42 0 C4.22 -0.13, 5.75 0.11, 7.27 0 M2.42 0 C3.67 -0.01, 5.05 0.08, 7.27 0 M7.27 0 C8.95 0.26, 9.72 0.86, 9.7 2.42 M7.27 0 C8.66 -0.41, 9.34 0.93, 9.7 2.42 M9.7 2.42 C9.64 4.25, 9.67 5.79, 9.7 7.34 M9.7 2.42 C9.67 3.78, 9.68 5.02, 9.7 7.34 M9.7 7.34 C10.02 8.98, 8.26 9.95, 7.27 9.77 M9.7 7.34 C10.44 9.51, 9.1 10.3, 7.27 9.77 M7.27 9.77 C5.59 9.65, 3.81 9.9, 2.42 9.77 M7.27 9.77 C5.79 9.73, 4.24 9.8, 2.42 9.77 M2.42 9.77 C0.17 9.8, 0.66 9.36, 0 7.34 M2.42 9.77 C0.65 10.09, -0.36 8.7, 0 7.34 M0 7.34 C0.11 5.81, 0.09 4.32, 0 2.42 M0 7.34 C-0.02 5.93, 0.06 4.62, 0 2.42 M0 2.42 C0.39 0.63, 0.65 0.51, 2.42 0 M0 2.42 C0.01 1.08, 1.39 -0.24, 2.42 0" stroke="#1e1e1e" stroke-width="2" fill="none"></path></g><g stroke-linecap="round" transform="translate(459.93245518085274 592.9064455339985) rotate(0 4.84973793996059 4.884730788913714)"><path d="M2.42 0 C3.92 0.12, 5.37 0.07, 7.27 0 M2.42 0 C3.48 0.08, 4.54 0.04, 7.27 0 M7.27 0 C8.91 0.05, 9.5 0.45, 9.7 2.42 M7.27 0 C8.53 0.12, 10.1 0.23, 9.7 2.42 M9.7 2.42 C9.67 3.5, 9.65 4.81, 9.7 7.34 M9.7 2.42 C9.67 3.98, 9.73 5.67, 9.7 7.34 M9.7 7.34 C9.07 9.14, 9.53 10.25, 7.27 9.77 M9.7 7.34 C9.91 9.49, 9.41 10.12, 7.27 9.77 M7.27 9.77 C6.12 9.89, 4.76 9.65, 2.42 9.77 M7.27 9.77 C6.23 9.81, 5.21 9.77, 2.42 9.77 M2.42 9.77 C1.47 10.17, -0.13 9.24, 0 7.34 M2.42 9.77 C0.45 9.51, -0.07 8.91, 0 7.34 M0 7.34 C0.08 5.99, -0.04 4.91, 0 2.42 M0 7.34 C0.06 5.97, 0.05 4.48, 0 2.42 M0 2.42 C-0.16 1.32, 0.82 0.24, 2.42 0 M0 2.42 C0.58 0.56, 0.89 0.64, 2.42 0" stroke="#1e1e1e" stroke-width="2" fill="none"></path></g><g stroke-linecap="round" transform="translate(473.5226280614557 604.9403029796448) rotate(0 4.84973793996059 4.884730788913714)"><path d="M2.42 0 C3.44 0.05, 4.42 -0.15, 7.27 0 M2.42 0 C3.72 0.02, 5 -0.01, 7.27 0 M7.27 0 C8.69 -0.35, 9.38 0.92, 9.7 2.42 M7.27 0 C9.29 -0.58, 9.22 0.6, 9.7 2.42 M9.7 2.42 C9.65 4.23, 9.75 5.85, 9.7 7.34 M9.7 2.42 C9.73 4.05, 9.62 5.69, 9.7 7.34 M9.7 7.34 C10.34 9.44, 9.07 10.23, 7.27 9.77 M9.7 7.34 C10.22 9.31, 8.59 10.27, 7.27 9.77 M7.27 9.77 C6.18 9.68, 4.91 9.79, 2.42 9.77 M7.27 9.77 C5.88 9.78, 4.73 9.83, 2.42 9.77 M2.42 9.77 C0.67 10.05, -0.31 8.74, 0 7.34 M2.42 9.77 C0.74 9.72, -0.44 9.48, 0 7.34 M0 7.34 C-0.04 6.12, -0.03 4.95, 0 2.42 M0 7.34 C0.04 6.06, -0.03 4.88, 0 2.42 M0 2.42 C0.01 1.04, 1.31 -0.21, 2.42 0 M0 2.42 C0.08 1.45, 1.53 0.14, 2.42 0" stroke="#1e1e1e" stroke-width="2" fill="none"></path></g><g mask="url(#mask-K3S1dt_1xzUgX9_mK2mSS)" stroke-linecap="round"><g transform="translate(422.6438085071916 542.5558418760771) rotate(0 -71.28053240218489 -1.6145028157889385)"><path d="M0.17 0.42 C-23.6 -0.26, -119.5 -3.27, -143.14 -3.8 M-1.19 -0.41 C-25.13 -0.95, -120.93 -1.82, -144.39 -2.56" stroke="#1e1e1e" stroke-width="2" fill="none"></path></g><g transform="translate(422.6438085071916 542.5558418760771) rotate(0 -71.28053240218489 -1.6145028157889385)"><path d="M-120.74 -10.67 C-126.11 -9.51, -133.85 -4.93, -144.39 -2.56 M-120.74 -10.67 C-129.44 -7.94, -136.75 -5.67, -144.39 -2.56" stroke="#1e1e1e" stroke-width="2" fill="none"></path></g><g transform="translate(422.6438085071916 542.5558418760771) rotate(0 -71.28053240218489 -1.6145028157889385)"><path d="M-121.06 6.43 C-126.39 3.19, -134.04 3.36, -144.39 -2.56 M-121.06 6.43 C-129.82 3.38, -137.01 -0.11, -144.39 -2.56" stroke="#1e1e1e" stroke-width="2" fill="none"></path></g></g><mask id="mask-K3S1dt_1xzUgX9_mK2mSS"><rect x="0" y="0" fill="#fff" width="665.2048733115614" height="645.7848475076551"></rect><rect x="321.36327610500666" y="529.4413390602881" fill="#000" width="60" height="23" opacity="1"></rect></mask><g transform="translate(321.36327610500666 529.4413390602881) rotate(0 29.17449010809888 11.423236969485913)"><text x="30" y="18.400390625" font-family="Helvetica, Segoe UI Emoji" font-size="20px" fill="#1e1e1e" text-anchor="middle" style="white-space: pre;" direction="ltr" dominant-baseline="alphabetic">发送给</text></g><g stroke-linecap="round" transform="translate(10 362.1672738170617) rotate(0 129.37878049031204 166.34593752013257)"><path d="M32 0 C90.96 -2.41, 148.13 -0.28, 226.76 0 M32 0 C105.07 -1.78, 180.75 -0.35, 226.76 0 M226.76 0 C249.71 -1.02, 260.54 9.37, 258.76 32 M226.76 0 C248.91 0.17, 256.71 9.95, 258.76 32 M258.76 32 C258.25 136.69, 256.65 242.6, 258.76 300.69 M258.76 32 C258.57 120.75, 259.23 209.62, 258.76 300.69 M258.76 300.69 C260.42 323.75, 248.93 333.77, 226.76 332.69 M258.76 300.69 C258.39 323.96, 250 333.48, 226.76 332.69 M226.76 332.69 C157.51 333.77, 91.07 334.51, 32 332.69 M226.76 332.69 C149.1 331.85, 71.09 332.6, 32 332.69 M32 332.69 C12.24 332.05, -0.39 323.05, 0 300.69 M32 332.69 C8.38 334.1, -2.02 323.11, 0 300.69 M0 300.69 C-2.98 203.08, -0.99 103.09, 0 32 M0 300.69 C0.8 239.7, 1.67 177.33, 0 32 M0 32 C-1.61 9.82, 8.81 -0.69, 32 0 M0 32 C-2.05 11.42, 8.76 0.76, 32 0" stroke="#1e1e1e" stroke-width="2" fill="none"></path></g><g transform="translate(53.36901486531204 445.71321133719425) rotate(0 86.009765625 82.79999999999998)"><text x="86.009765625" y="33.120703125" font-family="Helvetica, Segoe UI Emoji" font-size="36px" fill="#1e1e1e" text-anchor="middle" style="white-space: pre;" direction="ltr" dominant-baseline="alphabetic">在 Web</text><text x="86.009765625" y="74.520703125" font-family="Helvetica, Segoe UI Emoji" font-size="36px" fill="#1e1e1e" text-anchor="middle" style="white-space: pre;" direction="ltr" dominant-baseline="alphabetic">Worker</text><text x="86.009765625" y="115.92070312499999" font-family="Helvetica, Segoe UI Emoji" font-size="36px" fill="#1e1e1e" text-anchor="middle" style="white-space: pre;" direction="ltr" dominant-baseline="alphabetic">计算HASH</text><text x="86.009765625" y="157.320703125" font-family="Helvetica, Segoe UI Emoji" font-size="36px" fill="#1e1e1e" text-anchor="middle" style="white-space: pre;" direction="ltr" dominant-baseline="alphabetic"></text></g><g stroke-linecap="round" transform="translate(388.241312986073 57.9115771390363) rotate(0 825.911102206054 497.4737532811824)"><path d="M32 0 C632 -0.48, 1232.16 0.29, 1619.82 0 M1619.82 0 C1640.72 -0.45, 1653.5 9.39, 1651.82 32 M1651.82 32 C1653.82 242.56, 1654.24 452.68, 1651.82 962.95 M1651.82 962.95 C1652.52 984.01, 1639.76 993.99, 1619.82 994.95 M1619.82 994.95 C1009.12 993.09, 399.48 992.14, 32 994.95 M32 994.95 C12.44 994.59, -0.07 984.5, 0 962.95 M0 962.95 C-2.22 729.89, -2.3 495.47, 0 32 M0 32 C1.23 9.26, 8.91 1.23, 32 0" stroke="#1e1e1e" stroke-width="2.5" fill="none" stroke-dasharray="1.5 8"></path></g><g mask="url(#mask-Evt9r5t2U2wjRzBsyB03Y)" stroke-linecap="round"><g transform="translate(111.90683663740984 698.4574805393122) rotate(0 190.73237273633947 87.77913043943687)"><path d="M0 0 C63.58 29.26, 317.89 146.3, 381.46 175.56 M0 0 C63.58 29.26, 317.89 146.3, 381.46 175.56" stroke="#1e1e1e" stroke-width="2" fill="none"></path></g><g transform="translate(111.90683663740984 698.4574805393122) rotate(0 190.73237273633947 87.77913043943687)"><path d="M356.55 173.5 C363.4 174.07, 370.25 174.63, 381.46 175.56 M356.55 173.5 C363.36 174.07, 370.17 174.63, 381.46 175.56" stroke="#1e1e1e" stroke-width="2" fill="none"></path></g><g transform="translate(111.90683663740984 698.4574805393122) rotate(0 190.73237273633947 87.77913043943687)"><path d="M363.7 157.97 C368.58 162.81, 373.47 167.64, 381.46 175.56 M363.7 157.97 C368.56 162.78, 373.41 167.59, 381.46 175.56" stroke="#1e1e1e" stroke-width="2" fill="none"></path></g></g><mask id="mask-Evt9r5t2U2wjRzBsyB03Y"><rect x="0" y="0" fill="#fff" width="593.3715821100888" height="974.0157414181859"></rect><rect x="242.63920937374925" y="774.736610978749" fill="#000" width="120" height="23" opacity="1"></rect></mask><g transform="translate(242.63920937374928 774.736610978749) rotate(0 60.00000000000003 11.500000000000057)"><text x="60" y="18.400390625" font-family="Helvetica, Segoe UI Emoji" font-size="20px" fill="#1e1e1e" text-anchor="middle" style="white-space: pre;" direction="ltr" dominant-baseline="alphabetic">传递回主线程</text></g><g stroke-linecap="round" transform="translate(491.4193779827822 775.575106438914) rotate(0 95.12965539713565 102)"><path d="M120 25.75 C131.93 39.04, 143.87 52.32, 166.26 77.25 M120 25.75 C129.97 36.85, 139.93 47.94, 166.26 77.25 M166.26 77.25 C190.26 103, 190.26 103, 166.26 128.75 M166.26 77.25 C190.26 103, 190.26 103, 166.26 128.75 M166.26 128.75 C150.81 145.28, 135.37 161.8, 120 178.25 M166.26 128.75 C154.52 141.31, 142.79 153.87, 120 178.25 M120 178.25 C96 204, 96 204, 72 178.25 M120 178.25 C96 204, 96 204, 72 178.25 M72 178.25 C57.8 163.61, 43.61 148.97, 24 128.75 M72 178.25 C59.01 164.85, 46.02 151.45, 24 128.75 M24 128.75 C0 103, 0 103, 24 77.25 M24 128.75 C0 103, 0 103, 24 77.25 M24 77.25 C34.53 65.95, 45.06 54.66, 72 25.75 M24 77.25 C43.18 56.67, 62.36 36.1, 72 25.75 M72 25.75 C96 0, 96 0, 120 25.75 M72 25.75 C96 0, 96 0, 120 25.75" stroke="#1971c2" stroke-width="2" fill="none"></path></g><g transform="translate(546.4842056813501 831.575106438914) rotate(0 40 46)"><text x="40" y="18.400390625" font-family="Helvetica, Segoe UI Emoji" font-size="20px" fill="#1971c2" text-anchor="middle" style="white-space: pre;" direction="ltr" dominant-baseline="alphabetic">用 hash</text><text x="40" y="41.400390625" font-family="Helvetica, Segoe UI Emoji" font-size="20px" fill="#1971c2" text-anchor="middle" style="white-space: pre;" direction="ltr" dominant-baseline="alphabetic">发送请求</text><text x="40" y="64.400390625" font-family="Helvetica, Segoe UI Emoji" font-size="20px" fill="#1971c2" text-anchor="middle" style="white-space: pre;" direction="ltr" dominant-baseline="alphabetic">文件是否</text><text x="40" y="87.400390625" font-family="Helvetica, Segoe UI Emoji" font-size="20px" fill="#1971c2" text-anchor="middle" style="white-space: pre;" direction="ltr" dominant-baseline="alphabetic">已存在</text></g><g mask="url(#mask-1d_lh87Xl5AZRlKntvHu8)" stroke-linecap="round"><g transform="translate(677.3675860198989 886.8145834478917) rotate(0 76.82895025040045 47.07449368548282)"><path d="M0 0 C25.61 15.69, 128.05 78.46, 153.66 94.15 M0 0 C25.61 15.69, 128.05 78.46, 153.66 94.15" stroke="#1e1e1e" stroke-width="2" fill="none"></path></g><g transform="translate(677.3675860198989 886.8145834478917) rotate(0 76.82895025040045 47.07449368548282)"><path d="M129.16 89.17 C136.7 90.7, 144.24 92.23, 153.66 94.15 M129.16 89.17 C134.16 90.18, 139.16 91.2, 153.66 94.15" stroke="#1e1e1e" stroke-width="2" fill="none"></path></g><g transform="translate(677.3675860198989 886.8145834478917) rotate(0 76.82895025040045 47.07449368548282)"><path d="M138.09 74.58 C142.88 80.6, 147.67 86.63, 153.66 94.15 M138.09 74.58 C141.27 78.58, 144.45 82.57, 153.66 94.15" stroke="#1e1e1e" stroke-width="2" fill="none"></path></g></g><mask id="mask-1d_lh87Xl5AZRlKntvHu8"><rect x="0" y="0" fill="#fff" width="931.0254865206998" height="1080.9635708188573"></rect><rect x="744.1965362702994" y="922.3890771333745" fill="#000" width="20" height="23" opacity="1"></rect></mask><g transform="translate(744.1965362702995 922.3890771333745) rotate(0 10 11.5)"><text x="10" y="18.400390625" font-family="Helvetica, Segoe UI Emoji" font-size="20px" fill="#1e1e1e" text-anchor="middle" style="white-space: pre;" direction="ltr" dominant-baseline="alphabetic">是</text></g><g stroke-linecap="round" transform="translate(836.0497309666903 944.2380872215358) rotate(0 63.63477171627471 42.75982815379632)"><path d="M21.38 0 C39 0, 56.62 0, 105.89 0 M21.38 0 C45.73 0, 70.07 0, 105.89 0 M105.89 0 C120.14 0, 127.27 7.13, 127.27 21.38 M105.89 0 C120.14 0, 127.27 7.13, 127.27 21.38 M127.27 21.38 C127.27 34.8, 127.27 48.22, 127.27 64.14 M127.27 21.38 C127.27 37.58, 127.27 53.78, 127.27 64.14 M127.27 64.14 C127.27 78.39, 120.14 85.52, 105.89 85.52 M127.27 64.14 C127.27 78.39, 120.14 85.52, 105.89 85.52 M105.89 85.52 C82.16 85.52, 58.43 85.52, 21.38 85.52 M105.89 85.52 C74.31 85.52, 42.73 85.52, 21.38 85.52 M21.38 85.52 C7.13 85.52, 0 78.39, 0 64.14 M21.38 85.52 C7.13 85.52, 0 78.39, 0 64.14 M0 64.14 C0 49.1, 0 34.06, 0 21.38 M0 64.14 C0 47.17, 0 30.21, 0 21.38 M0 21.38 C0 7.13, 7.13 0, 21.38 0 M0 21.38 C0 7.13, 7.13 0, 21.38 0" stroke="#9c36b5" stroke-width="2" fill="none"></path></g><g transform="translate(849.684502682965 975.4979153753322) rotate(0 50 11.5)"><text x="50" y="18.400390625" font-family="Helvetica, Segoe UI Emoji" font-size="20px" fill="#9c36b5" text-anchor="middle" style="white-space: pre;" direction="ltr" dominant-baseline="alphabetic">提示已存在</text></g><g mask="url(#mask-BWpimxZ4PUcqtulAEneaY)" stroke-linecap="round"><g transform="translate(674.6457391867427 867.3062170358694) rotate(0 68.35753125286482 -46.20561051663441)"><path d="M0 0 C22.79 -15.4, 113.93 -77.01, 136.72 -92.41 M0 0 C22.79 -15.4, 113.93 -77.01, 136.72 -92.41" stroke="#1e1e1e" stroke-width="2" fill="none"></path></g><g transform="translate(674.6457391867427 867.3062170358694) rotate(0 68.35753125286482 -46.20561051663441)"><path d="M122.04 -72.17 C127.64 -79.9, 133.24 -87.62, 136.72 -92.41 M122.04 -72.17 C126.29 -78.04, 130.55 -83.91, 136.72 -92.41" stroke="#1e1e1e" stroke-width="2" fill="none"></path></g><g transform="translate(674.6457391867427 867.3062170358694) rotate(0 68.35753125286482 -46.20561051663441)"><path d="M112.46 -86.34 C121.72 -88.66, 130.98 -90.98, 136.72 -92.41 M112.46 -86.34 C119.49 -88.1, 126.53 -89.86, 136.72 -92.41" stroke="#1e1e1e" stroke-width="2" fill="none"></path></g></g><mask id="mask-BWpimxZ4PUcqtulAEneaY"><rect x="0" y="0" fill="#fff" width="911.3608016924724" height="1059.717438069138"></rect><rect x="733.0032704396075" y="809.6006065192349" fill="#000" width="20" height="23" opacity="1"></rect></mask><g transform="translate(733.0032704396075 809.6006065192348) rotate(0 10.000000000000057 11.500000000000057)"><text x="10" y="18.400390625" font-family="Helvetica, Segoe UI Emoji" font-size="20px" fill="#1e1e1e" text-anchor="middle" style="white-space: pre;" direction="ltr" dominant-baseline="alphabetic">否</text></g><g stroke-linecap="round" transform="translate(810.9341666696739 658.6086588804055) rotate(0 94.2074123287839 125)"><path d="M118.75 31.5 C136.3 55.59, 153.86 79.67, 164.66 94.5 M118.75 31.5 C129.73 46.56, 140.71 61.63, 164.66 94.5 M164.66 94.5 C188.41 126, 188.41 126, 164.66 157.5 M164.66 94.5 C188.41 126, 188.41 126, 164.66 157.5 M164.66 157.5 C151.67 174.76, 138.68 192.03, 118.75 218.5 M164.66 157.5 C150.46 176.38, 136.25 195.26, 118.75 218.5 M118.75 218.5 C95 250, 95 250, 71.25 218.5 M118.75 218.5 C95 250, 95 250, 71.25 218.5 M71.25 218.5 C53.66 195.9, 36.06 173.31, 23.75 157.5 M71.25 218.5 C55.54 198.33, 39.84 178.16, 23.75 157.5 M23.75 157.5 C0 126, 0 126, 23.75 94.5 M23.75 157.5 C0 126, 0 126, 23.75 94.5 M23.75 94.5 C37.22 76.63, 50.7 58.76, 71.25 31.5 M23.75 94.5 C41.82 70.53, 59.89 46.56, 71.25 31.5 M71.25 31.5 C95 0, 95 0, 118.75 31.5 M71.25 31.5 C95 0, 95 0, 118.75 31.5" stroke="#2f9e44" stroke-width="2" fill="none"></path></g><g transform="translate(865.0378728340659 726.1086588804055) rotate(0 40 57.5)"><text x="40" y="18.400390625" font-family="Helvetica, Segoe UI Emoji" font-size="20px" fill="#2f9e44" text-anchor="middle" style="white-space: pre;" direction="ltr" dominant-baseline="alphabetic">得到已有</text><text x="40" y="41.400390625" font-family="Helvetica, Segoe UI Emoji" font-size="20px" fill="#2f9e44" text-anchor="middle" style="white-space: pre;" direction="ltr" dominant-baseline="alphabetic">切片</text><text x="40" y="64.400390625" font-family="Helvetica, Segoe UI Emoji" font-size="20px" fill="#2f9e44" text-anchor="middle" style="white-space: pre;" direction="ltr" dominant-baseline="alphabetic">判断数量</text><text x="40" y="87.400390625" font-family="Helvetica, Segoe UI Emoji" font-size="20px" fill="#2f9e44" text-anchor="middle" style="white-space: pre;" direction="ltr" dominant-baseline="alphabetic">和前端是</text><text x="40" y="110.400390625" font-family="Helvetica, Segoe UI Emoji" font-size="20px" fill="#2f9e44" text-anchor="middle" style="white-space: pre;" direction="ltr" dominant-baseline="alphabetic">否一致</text></g><g stroke-linecap="round" transform="translate(1269.0230487925928 936.2773755824498) rotate(0 78.82915061234098 45.5491890905904)"><path d="M22.77 0 C53.86 0, 84.94 0, 134.88 0 M22.77 0 C53.83 0, 84.89 0, 134.88 0 M134.88 0 C150.07 0, 157.66 7.59, 157.66 22.77 M134.88 0 C150.07 0, 157.66 7.59, 157.66 22.77 M157.66 22.77 C157.66 35.98, 157.66 49.19, 157.66 68.32 M157.66 22.77 C157.66 39.46, 157.66 56.14, 157.66 68.32 M157.66 68.32 C157.66 83.51, 150.07 91.1, 134.88 91.1 M157.66 68.32 C157.66 83.51, 150.07 91.1, 134.88 91.1 M134.88 91.1 C97.55 91.1, 60.21 91.1, 22.77 91.1 M134.88 91.1 C93.66 91.1, 52.43 91.1, 22.77 91.1 M22.77 91.1 C7.59 91.1, 0 83.51, 0 68.32 M22.77 91.1 C7.59 91.1, 0 83.51, 0 68.32 M0 68.32 C0 51.5, 0 34.68, 0 22.77 M0 68.32 C0 55.53, 0 42.73, 0 22.77 M0 22.77 C0 7.59, 7.59 0, 22.77 0 M0 22.77 C0 7.59, 7.59 0, 22.77 0" stroke="#e03131" stroke-width="2" fill="none"></path></g><g transform="translate(1287.8521994049338 970.3265646730404) rotate(0 60 11.5)"><text x="60" y="18.400390625" font-family="Helvetica, Segoe UI Emoji" font-size="20px" fill="#e03131" text-anchor="middle" style="white-space: pre;" direction="ltr" dominant-baseline="alphabetic">发送合并请求</text></g><g mask="url(#mask-M0ynQTwOcrKNoq71L95K7)" stroke-linecap="round"><g transform="translate(993.4301272036984 795.5709487862821) rotate(0 137.59067330705034 99.90352781293348)"><path d="M0 0 C45.86 33.3, 229.32 166.51, 275.18 199.81 M0 0 C45.86 33.3, 229.32 166.51, 275.18 199.81" stroke="#1e1e1e" stroke-width="2" fill="none"></path></g><g transform="translate(993.4301272036984 795.5709487862821) rotate(0 137.59067330705034 99.90352781293348)"><path d="M251.15 192.92 C256.44 194.44, 261.73 195.95, 275.18 199.81 M251.15 192.92 C258.38 194.99, 265.61 197.06, 275.18 199.81" stroke="#1e1e1e" stroke-width="2" fill="none"></path></g><g transform="translate(993.4301272036984 795.5709487862821) rotate(0 137.59067330705034 99.90352781293348)"><path d="M261.2 179.09 C264.27 183.65, 267.35 188.21, 275.18 199.81 M261.2 179.09 C265.4 185.32, 269.61 191.55, 275.18 199.81" stroke="#1e1e1e" stroke-width="2" fill="none"></path></g></g><mask id="mask-M0ynQTwOcrKNoq71L95K7"><rect x="0" y="0" fill="#fff" width="1368.611473817799" height="1095.378004412149"></rect><rect x="1091.0208005107488" y="883.9744765992157" fill="#000" width="80" height="23" opacity="1"></rect></mask><g transform="translate(1091.020800510749 883.9744765992158) rotate(0 40 11.5)"><text x="40" y="18.400390625" font-family="Helvetica, Segoe UI Emoji" font-size="20px" fill="#1e1e1e" text-anchor="middle" style="white-space: pre;" direction="ltr" dominant-baseline="alphabetic">数量一致</text></g><g stroke-linecap="round" transform="translate(1128.1744663168274 537.9136335179467) rotate(0 77.44012807687864 50.79409292103293)"><path d="M25.4 0 C60.03 0, 94.65 0, 129.48 0 M25.4 0 C57.71 0, 90.03 0, 129.48 0 M129.48 0 C146.41 0, 154.88 8.47, 154.88 25.4 M129.48 0 C146.41 0, 154.88 8.47, 154.88 25.4 M154.88 25.4 C154.88 43.52, 154.88 61.65, 154.88 76.19 M154.88 25.4 C154.88 36.74, 154.88 48.09, 154.88 76.19 M154.88 76.19 C154.88 93.12, 146.41 101.59, 129.48 101.59 M154.88 76.19 C154.88 93.12, 146.41 101.59, 129.48 101.59 M129.48 101.59 C94.69 101.59, 59.89 101.59, 25.4 101.59 M129.48 101.59 C89.96 101.59, 50.44 101.59, 25.4 101.59 M25.4 101.59 C8.47 101.59, 0 93.12, 0 76.19 M25.4 101.59 C8.47 101.59, 0 93.12, 0 76.19 M0 76.19 C0 56.12, 0 36.06, 0 25.4 M0 76.19 C0 65.21, 0 54.22, 0 25.4 M0 25.4 C0 8.47, 8.47 0, 25.4 0 M0 25.4 C0 8.47, 8.47 0, 25.4 0" stroke="#9c36b5" stroke-width="2" fill="none"></path></g><g transform="translate(1135.6145943937063 554.2077264389796) rotate(0 70 34.5)"><text x="70" y="18.400390625" font-family="Helvetica, Segoe UI Emoji" font-size="20px" fill="#9c36b5" text-anchor="middle" style="white-space: pre;" direction="ltr" dominant-baseline="alphabetic">上传剩余切片：</text><text x="70" y="41.400390625" font-family="Helvetica, Segoe UI Emoji" font-size="20px" fill="#9c36b5" text-anchor="middle" style="white-space: pre;" direction="ltr" dominant-baseline="alphabetic">筛选切片封装为</text><text x="70" y="64.400390625" font-family="Helvetica, Segoe UI Emoji" font-size="20px" fill="#9c36b5" text-anchor="middle" style="white-space: pre;" direction="ltr" dominant-baseline="alphabetic">FormData</text></g><g mask="url(#mask-vP-9iI_pMcWFHd_3PRUHM)" stroke-linecap="round"><g transform="translate(995.9228872102584 779.9225193717798) rotate(0 73.75744015577459 -69.71035000588364)"><path d="M0 0 C24.59 -23.24, 122.93 -116.18, 147.51 -139.42 M0 0 C24.59 -23.24, 122.93 -116.18, 147.51 -139.42" stroke="#1e1e1e" stroke-width="2" fill="none"></path></g><g transform="translate(995.9228872102584 779.9225193717798) rotate(0 73.75744015577459 -69.71035000588364)"><path d="M136.31 -117.07 C138.9 -122.24, 141.49 -127.41, 147.51 -139.42 M136.31 -117.07 C140.33 -125.08, 144.34 -133.09, 147.51 -139.42" stroke="#1e1e1e" stroke-width="2" fill="none"></path></g><g transform="translate(995.9228872102584 779.9225193717798) rotate(0 73.75744015577459 -69.71035000588364)"><path d="M124.57 -129.5 C129.87 -131.79, 135.18 -134.09, 147.51 -139.42 M124.57 -129.5 C132.79 -133.05, 141.01 -136.61, 147.51 -139.42" stroke="#1e1e1e" stroke-width="2" fill="none"></path></g></g><mask id="mask-vP-9iI_pMcWFHd_3PRUHM"><rect x="0" y="0" fill="#fff" width="1243.4377675218075" height="1019.3432193835471"></rect><rect x="1019.6803273660332" y="698.7121693658962" fill="#000" width="100" height="23" opacity="1"></rect></mask><g transform="translate(1019.680327366033 698.7121693658962) rotate(0 49.999999999999886 11.499999999999943)"><text x="50" y="18.400390625" font-family="Helvetica, Segoe UI Emoji" font-size="20px" fill="#1e1e1e" text-anchor="middle" style="white-space: pre;" direction="ltr" dominant-baseline="alphabetic">数量不一致</text></g><g stroke-linecap="round" transform="translate(1557.6568395220356 504.98446383814616) rotate(0 126.63868391033338 73.67760267532049)"><path d="M32 0 C76.22 0, 120.43 0, 221.28 0 M32 0 C89.2 0, 146.41 0, 221.28 0 M221.28 0 C242.61 0, 253.28 10.67, 253.28 32 M221.28 0 C242.61 0, 253.28 10.67, 253.28 32 M253.28 32 C253.28 49.14, 253.28 66.29, 253.28 115.36 M253.28 32 C253.28 51.17, 253.28 70.33, 253.28 115.36 M253.28 115.36 C253.28 136.69, 242.61 147.36, 221.28 147.36 M253.28 115.36 C253.28 136.69, 242.61 147.36, 221.28 147.36 M221.28 147.36 C169.4 147.36, 117.52 147.36, 32 147.36 M221.28 147.36 C166.99 147.36, 112.69 147.36, 32 147.36 M32 147.36 C10.67 147.36, 0 136.69, 0 115.36 M32 147.36 C10.67 147.36, 0 136.69, 0 115.36 M0 115.36 C0 87.78, 0 60.21, 0 32 M0 115.36 C0 89.75, 0 64.14, 0 32 M0 32 C0 10.67, 10.67 0, 32 0 M0 32 C0 10.67, 10.67 0, 32 0" stroke="#846358" stroke-width="2" fill="none"></path></g><g mask="url(#mask-f0WQbh_zpCBhilFZHGJT8)" stroke-linecap="round"><g transform="translate(1287.4735680925646 588.4585476705515) rotate(0 132.07595746055438 -2.8142997660753792)"><path d="M0 0 C44.03 -0.94, 220.13 -4.69, 264.15 -5.63 M0 0 C44.03 -0.94, 220.13 -4.69, 264.15 -5.63" stroke="#1e1e1e" stroke-width="2" fill="none"></path></g><g transform="translate(1287.4735680925646 588.4585476705515) rotate(0 132.07595746055438 -2.8142997660753792)"><path d="M240.85 3.42 C248.85 0.31, 256.85 -2.79, 264.15 -5.63 M240.85 3.42 C246.37 1.27, 251.9 -0.87, 264.15 -5.63" stroke="#1e1e1e" stroke-width="2" fill="none"></path></g><g transform="translate(1287.4735680925646 588.4585476705515) rotate(0 132.07595746055438 -2.8142997660753792)"><path d="M240.48 -13.68 C248.61 -10.91, 256.73 -8.15, 264.15 -5.63 M240.48 -13.68 C246.09 -11.77, 251.71 -9.86, 264.15 -5.63" stroke="#1e1e1e" stroke-width="2" fill="none"></path></g></g><mask id="mask-f0WQbh_zpCBhilFZHGJT8"><rect x="0" y="0" fill="#fff" width="1651.6254830136734" height="694.0871472027022"></rect><rect x="1341.209681803119" y="574.1442479044763" fill="#000" width="156.6796875" height="23" opacity="1"></rect></mask><g transform="translate(1341.2096818031193 574.1442479044763) rotate(0 78.33984374999989 11.499999999999972)"><text x="78.33984375" y="18.400390625" font-family="Helvetica, Segoe UI Emoji" font-size="20px" fill="#1e1e1e" text-anchor="middle" style="white-space: pre;" direction="ltr" dominant-baseline="alphabetic">6 个任务并发上传</text></g><g stroke-linecap="round" transform="translate(1580.396071986489 515.8250633409809) rotate(0 27.83137210565974 22.937260117167057)"><path d="M11.47 0 C22.68 0, 33.9 0, 44.19 0 M11.47 0 C23.18 0, 34.9 0, 44.19 0 M44.19 0 C51.84 0, 55.66 3.82, 55.66 11.47 M44.19 0 C51.84 0, 55.66 3.82, 55.66 11.47 M55.66 11.47 C55.66 16.56, 55.66 21.65, 55.66 34.41 M55.66 11.47 C55.66 19.08, 55.66 26.7, 55.66 34.41 M55.66 34.41 C55.66 42.05, 51.84 45.87, 44.19 45.87 M55.66 34.41 C55.66 42.05, 51.84 45.87, 44.19 45.87 M44.19 45.87 C37.31 45.87, 30.44 45.87, 11.47 45.87 M44.19 45.87 C33.68 45.87, 23.16 45.87, 11.47 45.87 M11.47 45.87 C3.82 45.87, 0 42.05, 0 34.41 M11.47 45.87 C3.82 45.87, 0 42.05, 0 34.41 M0 34.41 C0 26.83, 0 19.26, 0 11.47 M0 34.41 C0 29.15, 0 23.89, 0 11.47 M0 11.47 C0 3.82, 3.82 0, 11.47 0 M0 11.47 C0 3.82, 3.82 0, 11.47 0" stroke="#1e1e1e" stroke-width="2" fill="none"></path></g><g stroke-linecap="round" transform="translate(1733.9976352970098 519.3229614392324) rotate(0 26.974195266056768 22.937260117167057)"><path d="M3.05 2.65 C3.05 2.65, 3.05 2.65, 3.05 2.65 M3.05 2.65 C3.05 2.65, 3.05 2.65, 3.05 2.65 M0.56 17.71 C4.48 13.21, 8.39 8.71, 15.65 0.36 M0.56 17.71 C4.94 12.68, 9.31 7.65, 15.65 0.36 M0.04 30.51 C10.17 18.86, 20.3 7.21, 26.28 0.32 M0.04 30.51 C9.29 19.87, 18.53 9.23, 26.28 0.32 M2.14 40.29 C15.56 24.84, 28.99 9.4, 36.91 0.29 M2.14 40.29 C9.15 32.22, 16.17 24.15, 36.91 0.29 M8.18 45.53 C21.41 30.31, 34.65 15.08, 46.89 1.01 M8.18 45.53 C18.03 34.2, 27.89 22.86, 46.89 1.01 M18.15 46.25 C30.21 32.38, 42.28 18.5, 52.92 6.25 M18.15 46.25 C30.72 31.79, 43.29 17.33, 52.92 6.25 M28.78 46.22 C36.2 37.69, 43.62 29.15, 54.37 16.79 M28.78 46.22 C35.76 38.19, 42.74 30.16, 54.37 16.79 M39.41 46.19 C44.54 40.28, 49.68 34.38, 54.5 28.83 M39.41 46.19 C42.49 42.64, 45.58 39.1, 54.5 28.83" stroke="#b2f2bb" stroke-width="1" fill="none"></path><path d="M11.47 0 C23.77 0, 36.08 0, 42.48 0 M42.48 0 C50.13 0, 53.95 3.82, 53.95 11.47 M53.95 11.47 C53.95 16.92, 53.95 22.37, 53.95 34.41 M53.95 34.41 C53.95 42.05, 50.13 45.87, 42.48 45.87 M42.48 45.87 C31.21 45.87, 19.94 45.87, 11.47 45.87 M11.47 45.87 C3.82 45.87, 0 42.05, 0 34.41 M0 34.41 C0 25.69, 0 16.97, 0 11.47 M0 11.47 C0 3.82, 3.82 0, 11.47 0" stroke="#2f9e44" stroke-width="2.5" fill="none" stroke-dasharray="1.5 8"></path></g><g stroke-linecap="round" transform="translate(1658.871601790413 520.5578449484285) rotate(0 26.974195266056768 22.937260117167057)"><path d="M11.47 0 C21.19 0, 30.91 0, 42.48 0 M11.47 0 C20.7 0, 29.92 0, 42.48 0 M42.48 0 C50.13 0, 53.95 3.82, 53.95 11.47 M42.48 0 C50.13 0, 53.95 3.82, 53.95 11.47 M53.95 11.47 C53.95 18.54, 53.95 25.61, 53.95 34.41 M53.95 11.47 C53.95 16.47, 53.95 21.46, 53.95 34.41 M53.95 34.41 C53.95 42.05, 50.13 45.87, 42.48 45.87 M53.95 34.41 C53.95 42.05, 50.13 45.87, 42.48 45.87 M42.48 45.87 C30.59 45.87, 18.7 45.87, 11.47 45.87 M42.48 45.87 C36.07 45.87, 29.66 45.87, 11.47 45.87 M11.47 45.87 C3.82 45.87, 0 42.05, 0 34.41 M11.47 45.87 C3.82 45.87, 0 42.05, 0 34.41 M0 34.41 C0 27.75, 0 21.1, 0 11.47 M0 34.41 C0 29.6, 0 24.8, 0 11.47 M0 11.47 C0 3.82, 3.82 0, 11.47 0 M0 11.47 C0 3.82, 3.82 0, 11.47 0" stroke="#1e1e1e" stroke-width="2" fill="none"></path></g><g stroke-linecap="round" transform="translate(1579.6605407049815 582.3227491222005) rotate(0 27.83137210565974 22.937260117167057)"><path d="M11.47 0 C21.8 0, 32.14 0, 44.19 0 M11.47 0 C20.35 0, 29.23 0, 44.19 0 M44.19 0 C51.84 0, 55.66 3.82, 55.66 11.47 M44.19 0 C51.84 0, 55.66 3.82, 55.66 11.47 M55.66 11.47 C55.66 16.85, 55.66 22.22, 55.66 34.41 M55.66 11.47 C55.66 20.59, 55.66 29.71, 55.66 34.41 M55.66 34.41 C55.66 42.05, 51.84 45.87, 44.19 45.87 M55.66 34.41 C55.66 42.05, 51.84 45.87, 44.19 45.87 M44.19 45.87 C35.11 45.87, 26.02 45.87, 11.47 45.87 M44.19 45.87 C36.9 45.87, 29.61 45.87, 11.47 45.87 M11.47 45.87 C3.82 45.87, 0 42.05, 0 34.41 M11.47 45.87 C3.82 45.87, 0 42.05, 0 34.41 M0 34.41 C0 29.05, 0 23.69, 0 11.47 M0 34.41 C0 28.12, 0 21.83, 0 11.47 M0 11.47 C0 3.82, 3.82 0, 11.47 0 M0 11.47 C0 3.82, 3.82 0, 11.47 0" stroke="#1e1e1e" stroke-width="2" fill="none"></path></g><g stroke-linecap="round" transform="translate(1659.4529147532471 582.6324813041706) rotate(0 26.974195266056768 22.937260117167057)"><path d="M11.47 0 C22.72 0, 33.98 0, 42.48 0 M11.47 0 C21.1 0, 30.73 0, 42.48 0 M42.48 0 C50.13 0, 53.95 3.82, 53.95 11.47 M42.48 0 C50.13 0, 53.95 3.82, 53.95 11.47 M53.95 11.47 C53.95 17.08, 53.95 22.68, 53.95 34.41 M53.95 11.47 C53.95 17.39, 53.95 23.31, 53.95 34.41 M53.95 34.41 C53.95 42.05, 50.13 45.87, 42.48 45.87 M53.95 34.41 C53.95 42.05, 50.13 45.87, 42.48 45.87 M42.48 45.87 C30.94 45.87, 19.4 45.87, 11.47 45.87 M42.48 45.87 C31.36 45.87, 20.24 45.87, 11.47 45.87 M11.47 45.87 C3.82 45.87, 0 42.05, 0 34.41 M11.47 45.87 C3.82 45.87, 0 42.05, 0 34.41 M0 34.41 C0 28.61, 0 22.82, 0 11.47 M0 34.41 C0 28.74, 0 23.07, 0 11.47 M0 11.47 C0 3.82, 3.82 0, 11.47 0 M0 11.47 C0 3.82, 3.82 0, 11.47 0" stroke="#1e1e1e" stroke-width="2" fill="none"></path></g><g stroke-linecap="round" transform="translate(1733.686448985603 581.7823372345322) rotate(0 26.974195266056768 22.937260117167057)"><path d="M11.47 0 C23.68 0, 35.89 0, 42.48 0 M11.47 0 C23.82 0, 36.17 0, 42.48 0 M42.48 0 C50.13 0, 53.95 3.82, 53.95 11.47 M42.48 0 C50.13 0, 53.95 3.82, 53.95 11.47 M53.95 11.47 C53.95 17.89, 53.95 24.3, 53.95 34.41 M53.95 11.47 C53.95 17.19, 53.95 22.91, 53.95 34.41 M53.95 34.41 C53.95 42.05, 50.13 45.87, 42.48 45.87 M53.95 34.41 C53.95 42.05, 50.13 45.87, 42.48 45.87 M42.48 45.87 C35.77 45.87, 29.06 45.87, 11.47 45.87 M42.48 45.87 C31.45 45.87, 20.41 45.87, 11.47 45.87 M11.47 45.87 C3.82 45.87, 0 42.05, 0 34.41 M11.47 45.87 C3.82 45.87, 0 42.05, 0 34.41 M0 34.41 C0 25.4, 0 16.39, 0 11.47 M0 34.41 C0 25.27, 0 16.14, 0 11.47 M0 11.47 C0 3.82, 3.82 0, 11.47 0 M0 11.47 C0 3.82, 3.82 0, 11.47 0" stroke="#1e1e1e" stroke-width="2" fill="none"></path></g><g mask="url(#mask-DhKX0OZIu8idNoVy4QEoX)" stroke-linecap="round"><g transform="translate(1786.3108832110029 525.9074998305692) rotate(0 100.77910143240729 -111.6083850693728)"><path d="M0 0 C33.59 -37.2, 167.97 -186.01, 201.56 -223.22" stroke="#2f9e44" stroke-width="2.5" fill="none" stroke-dasharray="1.5 8"></path></g><g transform="translate(1786.3108832110029 525.9074998305692) rotate(0 100.77910143240729 -111.6083850693728)"><path d="M192.16 -200.05 C194.62 -206.1, 197.07 -212.16, 201.56 -223.22" stroke="#2f9e44" stroke-width="2.5" fill="none" stroke-dasharray="1.5 6"></path></g><g transform="translate(1786.3108832110029 525.9074998305692) rotate(0 100.77910143240729 -111.6083850693728)"><path d="M179.47 -211.51 C185.24 -214.57, 191.01 -217.63, 201.56 -223.22" stroke="#2f9e44" stroke-width="2.5" fill="none" stroke-dasharray="1.5 6"></path></g></g><mask id="mask-DhKX0OZIu8idNoVy4QEoX"><rect x="0" y="0" fill="#fff" width="2087.8690860758174" height="849.1242699693148"></rect><rect x="1787.0899846434104" y="391.29911476119645" fill="#000" width="200" height="46" opacity="1"></rect></mask><g transform="translate(1787.0899846434102 391.29911476119645) rotate(0 100 22.999999999999986)"><text x="100" y="18.400390625" font-family="Helvetica, Segoe UI Emoji" font-size="20px" fill="#2f9e44" text-anchor="middle" style="white-space: pre;" direction="ltr" dominant-baseline="alphabetic">池满则让最快上传完的</text><text x="100" y="41.400390625" font-family="Helvetica, Segoe UI Emoji" font-size="20px" fill="#2f9e44" text-anchor="middle" style="white-space: pre;" direction="ltr" dominant-baseline="alphabetic">从任务池中删除</text></g><g stroke-linecap="round" transform="translate(1641.2980620953167 287.18928899544085) rotate(0 26.64320618937836 25.700000000000003)"><path d="M12.85 0 C22.44 0, 32.03 0, 40.44 0 M12.85 0 C21.05 0, 29.26 0, 40.44 0 M40.44 0 C49 0, 53.29 4.28, 53.29 12.85 M40.44 0 C49 0, 53.29 4.28, 53.29 12.85 M53.29 12.85 C53.29 19.34, 53.29 25.83, 53.29 38.55 M53.29 12.85 C53.29 22.23, 53.29 31.61, 53.29 38.55 M53.29 38.55 C53.29 47.12, 49 51.4, 40.44 51.4 M53.29 38.55 C53.29 47.12, 49 51.4, 40.44 51.4 M40.44 51.4 C30.78 51.4, 21.13 51.4, 12.85 51.4 M40.44 51.4 C30.21 51.4, 19.98 51.4, 12.85 51.4 M12.85 51.4 C4.28 51.4, 0 47.12, 0 38.55 M12.85 51.4 C4.28 51.4, 0 47.12, 0 38.55 M0 38.55 C0 30.23, 0 21.91, 0 12.85 M0 38.55 C0 31.98, 0 25.42, 0 12.85 M0 12.85 C0 4.28, 4.28 0, 12.85 0 M0 12.85 C0 4.28, 4.28 0, 12.85 0" stroke="#c2255c" stroke-width="2" fill="none"></path></g><g mask="url(#mask-6mHho8tnjP54iAy1UaBkv)" stroke-linecap="round"><g transform="translate(1671.7504812759644 336.1346126838656) rotate(0 32.63513864230856 91.04252591655263)"><path d="M0 0 C10.88 30.35, 54.39 151.74, 65.27 182.09 M0 0 C10.88 30.35, 54.39 151.74, 65.27 182.09" stroke="#c2255c" stroke-width="2" fill="none"></path></g><g transform="translate(1671.7504812759644 336.1346126838656) rotate(0 32.63513864230856 91.04252591655263)"><path d="M49.29 162.86 C53.63 168.07, 57.96 173.29, 65.27 182.09 M49.29 162.86 C53.21 167.57, 57.12 172.28, 65.27 182.09" stroke="#c2255c" stroke-width="2" fill="none"></path></g><g transform="translate(1671.7504812759644 336.1346126838656) rotate(0 32.63513864230856 91.04252591655263)"><path d="M65.39 157.09 C65.36 163.87, 65.33 170.65, 65.27 182.09 M65.39 157.09 C65.36 163.21, 65.33 169.33, 65.27 182.09" stroke="#c2255c" stroke-width="2" fill="none"></path></g></g><mask id="mask-6mHho8tnjP54iAy1UaBkv"><rect x="0" y="0" fill="#fff" width="1837.0207585605815" height="618.2196645169709"></rect><rect x="1654.385619918273" y="415.6771386004183" fill="#000" width="100" height="23" opacity="1"></rect></mask><g transform="translate(1654.385619918273 415.6771386004183) rotate(0 49.999999999999886 11.499999999999986)"><text x="50" y="18.400390625" font-family="Helvetica, Segoe UI Emoji" font-size="20px" fill="#c2255c" text-anchor="middle" style="white-space: pre;" direction="ltr" dominant-baseline="alphabetic">加入新任务</text></g><g stroke-linecap="round"><g transform="translate(1970.7594968813642 302.9170470092105) rotate(0 -133.5243882918312 1.1451433837658982)"><path d="M0 0 C-44.51 0.38, -222.54 1.91, -267.05 2.29" stroke="#2f9e44" stroke-width="2.5" fill="none" stroke-dasharray="1.5 8"></path></g><g transform="translate(1970.7594968813642 302.9170470092105) rotate(0 -133.5243882918312 1.1451433837658982)"><path d="M-243.63 -6.46 C-252.56 -3.12, -261.49 0.21, -267.05 2.29" stroke="#2f9e44" stroke-width="2.5" fill="none" stroke-dasharray="1.5 6"></path></g><g transform="translate(1970.7594968813642 302.9170470092105) rotate(0 -133.5243882918312 1.1451433837658982)"><path d="M-243.48 10.64 C-252.47 7.46, -261.46 4.27, -267.05 2.29" stroke="#2f9e44" stroke-width="2.5" fill="none" stroke-dasharray="1.5 6"></path></g></g><mask></mask><g mask="url(#mask-RwK3xPKV5-0_aGiDfN8Mt)" stroke-linecap="round"><g transform="translate(1773.4202071935574 652.9563838786667) rotate(0 -164.13285307228637 164.129634132817)"><path d="M0 0 C-54.71 54.71, -273.55 273.55, -328.27 328.26 M0 0 C-54.71 54.71, -273.55 273.55, -328.27 328.26" stroke="#1e1e1e" stroke-width="2" fill="none"></path></g><g transform="translate(1773.4202071935574 652.9563838786667) rotate(0 -164.13285307228637 164.129634132817)"><path d="M-317.7 305.6 C-320.42 311.43, -323.13 317.25, -328.27 328.26 M-317.7 305.6 C-320.25 311.06, -322.79 316.52, -328.27 328.26" stroke="#1e1e1e" stroke-width="2" fill="none"></path></g><g transform="translate(1773.4202071935574 652.9563838786667) rotate(0 -164.13285307228637 164.129634132817)"><path d="M-305.61 317.69 C-311.43 320.41, -317.26 323.13, -328.27 328.26 M-305.61 317.69 C-311.07 320.24, -316.52 322.78, -328.27 328.26" stroke="#1e1e1e" stroke-width="2" fill="none"></path></g></g><mask id="mask-RwK3xPKV5-0_aGiDfN8Mt"><rect x="0" y="0" fill="#fff" width="2201.6859133381304" height="1081.2156521443007"></rect><rect x="1509.2873541212712" y="805.5860180114836" fill="#000" width="200" height="23" opacity="1"></rect></mask><g transform="translate(1509.2873541212714 805.5860180114835) rotate(0 99.99999999999989 11.500000000000057)"><text x="100" y="18.400390625" font-family="Helvetica, Segoe UI Emoji" font-size="20px" fill="#1e1e1e" text-anchor="middle" style="white-space: pre;" direction="ltr" dominant-baseline="alphabetic">全部上传完后合并切片</text></g><g stroke-linecap="round" transform="translate(781.1731098055908 98.04182761097326) rotate(0 106.201171875 98.00585937500001)"><path d="M7.86 8.16 C7.86 8.16, 7.86 8.16, 7.86 8.16 M7.86 8.16 C7.86 8.16, 7.86 8.16, 7.86 8.16 M1.43 27.75 C9.3 17.94, 16.62 9.8, 24.4 1.33 M1.43 27.75 C9.51 18.3, 17.54 8.26, 24.4 1.33 M0.91 40.54 C8.09 30.65, 16.96 25.15, 36.34 -0.21 M0.91 40.54 C12.76 26.62, 24.51 14.57, 36.34 -0.21 M1.04 52.58 C18.23 35.74, 32.91 15.91, 46.97 -0.25 M1.04 52.58 C14.46 36.42, 29.43 20.98, 46.97 -0.25 M1.18 64.62 C19.63 43.51, 38.69 20.22, 57.6 -0.28 M1.18 64.62 C24.07 38.67, 47.66 12.33, 57.6 -0.28 M0.65 77.42 C27.52 46.81, 51.6 20.55, 67.57 0.44 M0.65 77.42 C19.18 56.25, 37.89 35.49, 67.57 0.44 M0.79 89.46 C19.3 68.64, 38.29 46.92, 78.2 0.41 M0.79 89.46 C26.85 60.47, 51.54 29.54, 78.2 0.41 M0.92 101.5 C28.09 67.12, 58.44 32.88, 88.83 0.37 M0.92 101.5 C21.28 80.62, 39.02 58.9, 88.83 0.37 M1.05 113.54 C37.02 71.37, 74.35 28.07, 99.46 0.34 M1.05 113.54 C34.92 76.82, 69 38.69, 99.46 0.34 M0.53 126.34 C27.99 94.99, 57.05 59.13, 110.09 0.3 M0.53 126.34 C26.59 96.71, 53.25 66.4, 110.09 0.3 M0.66 138.38 C26.36 107.32, 55.25 79.05, 120.72 0.27 M0.66 138.38 C39.16 94.41, 80.17 48.25, 120.72 0.27 M0.8 150.42 C45.56 94.75, 93.05 43.8, 131.35 0.23 M0.8 150.42 C47.66 94.96, 95.81 39.19, 131.35 0.23 M0.93 162.46 C40.33 118.44, 78.72 72.72, 141.98 0.2 M0.93 162.46 C40.55 117.56, 78.31 73.7, 141.98 0.2 M1.72 173.75 C53.07 114.63, 104.99 56.73, 152.61 0.16 M1.72 173.75 C59.61 107.35, 117.17 40.36, 152.61 0.16 M5.13 182.01 C69.35 108.69, 131.79 36.93, 163.24 0.13 M5.13 182.01 C45.03 137.05, 84.18 91.73, 163.24 0.13 M9.86 188.77 C61.41 129.36, 113.58 72.76, 173.87 0.09 M9.86 188.77 C65.48 125.2, 120.01 61.49, 173.87 0.09 M16.55 193.27 C62.01 140.25, 105.94 87.3, 183.85 0.81 M16.55 193.27 C82.21 118.73, 146.36 44.56, 183.85 0.81 M25.21 195.5 C73.93 139.51, 123.21 83.83, 193.17 2.29 M25.21 195.5 C74.1 137.95, 123.1 81.39, 193.17 2.29 M35.19 196.22 C89.11 134.55, 147.04 69.05, 200.52 6.03 M35.19 196.22 C88.87 134.6, 141.91 73.14, 200.52 6.03 M45.82 196.18 C85.95 151.7, 127.55 104.08, 206.55 11.28 M45.82 196.18 C105.35 129.33, 164.12 61.64, 206.55 11.28 M56.45 196.15 C100.84 146.27, 141.83 97.57, 210.62 18.79 M56.45 196.15 C108.26 134.43, 161.09 73.61, 210.62 18.79 M67.08 196.11 C112.96 142.98, 156.72 92.99, 212.72 28.57 M67.08 196.11 C103.64 153.3, 142.76 108.11, 212.72 28.57 M77.71 196.08 C119.07 148.22, 160.2 97.86, 212.86 40.61 M77.71 196.08 C110.73 155.99, 144.39 118.31, 212.86 40.61 M88.34 196.04 C131.28 147.81, 171.92 98.51, 212.99 52.65 M88.34 196.04 C133.96 144.23, 180 90.72, 212.99 52.65 M98.97 196.01 C138.49 152.2, 173.7 110.82, 213.12 64.69 M98.97 196.01 C130.42 159.33, 161.85 124.7, 213.12 64.69 M108.94 196.73 C144.42 155.35, 180.05 117.24, 213.26 76.73 M108.94 196.73 C135.46 167.79, 161.47 137.53, 213.26 76.73 M119.57 196.69 C151.35 157.73, 182.42 123.55, 213.39 88.77 M119.57 196.69 C155.68 154.48, 193.28 110.85, 213.39 88.77 M130.2 196.66 C151.46 172.53, 174.11 145.47, 212.87 101.57 M130.2 196.66 C157.76 163.96, 187.78 132.28, 212.87 101.57 M140.83 196.63 C157.48 178.76, 172.46 160.15, 213 113.61 M140.83 196.63 C153.86 179.58, 169.57 163.2, 213 113.61 M151.46 196.59 C166.42 181.8, 180.2 163.52, 213.13 125.65 M151.46 196.59 C167.56 176.57, 185.13 157.14, 213.13 125.65 M162.09 196.56 C181.84 177.18, 196.81 153.15, 213.27 137.69 M162.09 196.56 C173.02 184.16, 184.81 170.51, 213.27 137.69 M172.72 196.52 C184.14 182.26, 194.87 171.73, 213.4 149.73 M172.72 196.52 C186.91 180.64, 201.2 164.49, 213.4 149.73 M184.01 195.73 C189.47 187.94, 197.14 181.25, 212.88 162.53 M184.01 195.73 C189.28 188.8, 195.94 182.09, 212.88 162.53 M197.26 192.68 C201 188.51, 207.44 180.29, 211.04 176.83 M197.26 192.68 C201.01 189.51, 203.4 184.4, 211.04 176.83" stroke="#b2f2bb" stroke-width="1" fill="none"></path><path d="M32 0 C83.85 -2.15, 131.92 -1.36, 180.4 0 M32 0 C71.35 0.95, 108.84 0.84, 180.4 0 M180.4 0 C200.64 1.24, 212.8 9.01, 212.4 32 M180.4 0 C199.56 -2.22, 212.18 10.08, 212.4 32 M212.4 32 C212.32 62.57, 210.69 91.73, 212.4 164.01 M212.4 32 C212.63 67.46, 211.41 101.74, 212.4 164.01 M212.4 164.01 C213.39 185.98, 202.32 196.38, 180.4 196.01 M212.4 164.01 C213.2 183.6, 201.67 194.85, 180.4 196.01 M180.4 196.01 C142.1 193.54, 103.64 196.14, 32 196.01 M180.4 196.01 C142.48 195.53, 107.23 196.96, 32 196.01 M32 196.01 C12.51 194.94, -1.9 183.8, 0 164.01 M32 196.01 C10.71 198.15, 1.66 183.93, 0 164.01 M0 164.01 C-0.65 116.67, 1.26 67.27, 0 32 M0 164.01 C-1.53 123.77, 0.09 82.82, 0 32 M0 32 C0.82 12.14, 11.66 0.79, 32 0 M0 32 C-1.91 11.55, 10.76 -0.75, 32 0" stroke="#1e1e1e" stroke-width="2" fill="none"></path></g><g transform="translate(851.3742816805908 175.34768698597327) rotate(0 36 20.700000000000003)"><text x="36" y="33.120703125" font-family="Helvetica, Segoe UI Emoji" font-size="36px" fill="#1e1e1e" text-anchor="middle" style="white-space: pre;" direction="ltr" dominant-baseline="alphabetic">文件</text></g><g transform="translate(459.28797684677085 417.55808413156836) rotate(0 60.00000000000003 11.5)"><text x="0" y="18.400390625" font-family="Helvetica, Segoe UI Emoji" font-size="20px" fill="#1e1e1e" text-anchor="start" style="white-space: pre;" direction="ltr" dominant-baseline="alphabetic">切片的简略版</text></g><g transform="translate(1567.416773834348 475.48965944969245) rotate(0 30 11.5)"><text x="0" y="18.400390625" font-family="Helvetica, Segoe UI Emoji" font-size="20px" fill="#1e1e1e" text-anchor="start" style="white-space: pre;" direction="ltr" dominant-baseline="alphabetic">任务池</text></g><g transform="translate(1056.8279320105926 10) rotate(0 54 20.700000000000003)"><text x="0" y="33.120703125" font-family="Helvetica, Segoe UI Emoji" font-size="36px" fill="#1e1e1e" text-anchor="start" style="white-space: pre;" direction="ltr" dominant-baseline="alphabetic">主线程</text></g></svg>